<svg width="158" height="41" viewBox="0 0 158 41" fill="none" xmlns="http://www.w3.org/2000/svg">
<g clip-path="url(#clip0_0_3120)">
<path d="M49.6187 31.7686C49.6193 31.9028 49.5811 32.0344 49.5086 32.1475C49.4345 32.2511 49.3343 32.3336 49.2182 32.3868C48.9843 32.2283 48.7363 32.0915 48.4773 31.978C48.1433 31.8448 47.7857 31.7804 47.426 31.7886C47.0833 31.7891 46.7438 31.8534 46.4248 31.978C46.1257 32.1034 45.8588 32.2942 45.6438 32.5363C45.4027 32.795 45.2246 33.1054 45.1232 33.4435C44.9882 33.8415 44.9238 34.2598 44.9329 34.6798C44.8742 35.4613 45.1259 36.2345 45.6338 36.8332C45.875 37.0757 46.1643 37.2656 46.4831 37.3909C46.802 37.5162 47.1435 37.5741 47.4861 37.561C47.8453 37.5638 48.2019 37.4996 48.5374 37.3715C48.8092 37.2693 49.068 37.1354 49.3083 36.9728C49.4096 37.0394 49.4978 37.1239 49.5686 37.222C49.6495 37.3317 49.6917 37.4648 49.6888 37.6008C49.6896 37.715 49.6546 37.8265 49.5887 37.9199C49.517 38.0393 49.4129 38.136 49.2883 38.199C49.0519 38.3352 48.7997 38.4424 48.5374 38.518C47.6473 38.7364 46.7132 38.6984 45.8441 38.4084C45.398 38.2511 44.9915 37.9994 44.6526 37.6706C44.2938 37.3194 44.017 36.894 43.8416 36.4244C43.4479 35.2943 43.4479 34.0652 43.8416 32.9351C44.0196 32.4663 44.2922 32.0388 44.6426 31.6789C44.9795 31.3477 45.3818 31.0897 45.824 30.9212C46.2845 30.7473 46.7733 30.6594 47.2658 30.662C47.6024 30.6532 47.9388 30.6867 48.267 30.7617C48.5232 30.8098 48.7722 30.8902 49.008 31.001C49.1907 31.0874 49.3541 31.2095 49.4885 31.3599C49.5795 31.4763 49.6257 31.6213 49.6187 31.7686Z" fill="white"/>
<path d="M53.1331 38.558C52.9467 38.5748 52.7599 38.5292 52.6025 38.4284C52.5384 38.3693 52.4889 38.2963 52.4576 38.215C52.4264 38.1338 52.4143 38.0465 52.4222 37.9599V30.3331L52.6726 30.2733C52.7891 30.2624 52.9064 30.2624 53.023 30.2733C53.2136 30.2609 53.4031 30.3099 53.5637 30.4129C53.6253 30.4734 53.6726 30.5469 53.702 30.628C53.7315 30.7091 53.7424 30.7957 53.7339 30.8815V38.4982C53.6531 38.53 53.5692 38.5534 53.4836 38.568C53.3667 38.5754 53.2494 38.5721 53.1331 38.558Z" fill="white"/>
<path d="M58.9603 32.4366C59.6166 32.4032 60.2661 32.5815 60.8126 32.945C61.0486 33.135 61.2341 33.3798 61.3529 33.658C61.4716 33.9361 61.5198 34.2391 61.4934 34.5402V37.4712C61.5039 37.6313 61.4578 37.79 61.3632 37.9198C61.2641 38.0357 61.1455 38.1335 61.0128 38.209C60.7487 38.356 60.4658 38.4667 60.1718 38.538C59.7822 38.6351 59.3818 38.682 58.9803 38.6775C58.3085 38.7181 57.6406 38.551 57.0679 38.199C56.8444 38.041 56.6647 37.8293 56.5457 37.5835C56.4266 37.3376 56.3721 37.0658 56.3871 36.7933C56.3717 36.5558 56.4115 36.318 56.5036 36.0984C56.5956 35.8787 56.7374 35.6833 56.9177 35.5271C57.363 35.1981 57.8959 35.0073 58.4496 34.9788L60.1918 34.8093V34.5302C60.2049 34.3763 60.1787 34.2215 60.1157 34.0803C60.0527 33.9392 59.9549 33.8161 59.8313 33.7227C59.5305 33.5408 59.1815 33.4539 58.8301 33.4734C58.4913 33.4705 58.1539 33.5175 57.8289 33.613C57.5434 33.696 57.2654 33.8028 56.9978 33.932C56.9145 33.861 56.8435 33.7768 56.7876 33.6828C56.7551 33.5865 56.7482 33.4834 56.7676 33.3837C56.7639 33.2584 56.8027 33.1355 56.8777 33.0348C56.9619 32.9245 57.0768 32.8413 57.2081 32.7955C57.4603 32.6691 57.7304 32.5817 58.0091 32.5363C58.3229 32.4771 58.641 32.4437 58.9603 32.4366ZM58.9603 37.6507C59.2201 37.6551 59.4794 37.6249 59.7312 37.5609C59.8944 37.5243 60.0502 37.4603 60.1918 37.3715V35.7764L58.8301 35.916C58.5261 35.931 58.2305 36.02 57.969 36.1752C57.871 36.2371 57.7919 36.3248 57.7407 36.4286C57.6895 36.5324 57.668 36.6482 57.6787 36.7634C57.6717 36.8886 57.6964 37.0137 57.7507 37.1269C57.8049 37.2402 57.8869 37.338 57.9891 37.4114C58.2842 37.5972 58.6325 37.6813 58.9803 37.6507H58.9603Z" fill="white"/>
<path d="M68.7824 36.863C68.7935 37.1174 68.7429 37.3708 68.6348 37.6016C68.5267 37.8324 68.3644 38.0339 68.1616 38.189C67.6264 38.5416 66.9898 38.7097 66.3494 38.6675C66.0472 38.6684 65.7456 38.6417 65.4483 38.5878C65.2035 38.5475 64.9648 38.4771 64.7374 38.3784C64.5694 38.2952 64.417 38.1839 64.2868 38.0494C64.1835 37.9342 64.1265 37.7851 64.1266 37.6307C64.1268 37.5087 64.1578 37.3887 64.2167 37.2817C64.2767 37.1722 64.367 37.0822 64.4771 37.0225C64.7287 37.1807 64.9933 37.3174 65.268 37.4313C65.5861 37.559 65.9263 37.6233 66.2693 37.6207C66.57 37.643 66.8704 37.5735 67.1303 37.4213C67.2263 37.3639 67.3049 37.2817 67.3578 37.1834C67.4107 37.0851 67.4359 36.9744 67.4307 36.863C67.4364 36.7704 67.4214 36.6776 67.3868 36.5914C67.3521 36.5052 67.2988 36.4277 67.2305 36.3645C67.0538 36.2196 66.8441 36.1203 66.6197 36.0754L65.7687 35.8461C65.3076 35.749 64.8777 35.5402 64.5171 35.238C64.3831 35.0956 64.2794 34.9277 64.2123 34.7444C64.1452 34.561 64.116 34.3661 64.1266 34.1712C64.1239 33.9336 64.1753 33.6984 64.2768 33.4833C64.3758 33.2643 64.5271 33.0727 64.7174 32.925C64.9372 32.7623 65.1848 32.6407 65.4483 32.5661C65.7736 32.4732 66.1111 32.4295 66.4495 32.4365C66.7248 32.4328 66.9998 32.4562 67.2705 32.5063C67.488 32.5426 67.6999 32.6063 67.9013 32.6957C68.0619 32.7586 68.2058 32.8575 68.3218 32.9849C68.4156 33.0893 68.4688 33.2236 68.472 33.3637C68.4741 33.486 68.443 33.6065 68.3819 33.7126C68.3246 33.803 68.2497 33.881 68.1616 33.9419C67.9475 33.8224 67.7229 33.7223 67.4908 33.6428C67.1706 33.5246 66.831 33.4671 66.4896 33.4734C66.2034 33.4577 65.9186 33.5234 65.6685 33.6628C65.5893 33.706 65.5214 33.767 65.47 33.841C65.4187 33.915 65.3853 33.9999 65.3727 34.0889C65.3601 34.178 65.3685 34.2687 65.3972 34.354C65.426 34.4392 65.4743 34.5166 65.5384 34.58C65.7066 34.7161 65.9062 34.8086 66.1191 34.8492L66.84 35.0286C67.3578 35.1372 67.8398 35.3738 68.2417 35.7165C68.4101 35.857 68.5457 36.0324 68.639 36.2304C68.7324 36.4284 68.7813 36.6443 68.7824 36.863Z" fill="white"/>
<path d="M75.771 36.863C75.7821 37.1174 75.7315 37.3708 75.6234 37.6016C75.5154 37.8324 75.3531 38.0339 75.1502 38.189C74.615 38.5416 73.9784 38.7097 73.338 38.6675C73.0358 38.6684 72.7342 38.6417 72.4369 38.5878C72.1922 38.5475 71.9534 38.4771 71.726 38.3784C71.5565 38.2978 71.4037 38.1862 71.2755 38.0494C71.1693 37.9352 71.1088 37.7862 71.1052 37.6307C71.1089 37.5079 71.1433 37.3879 71.2054 37.2817C71.2643 37.1748 71.3506 37.0853 71.4557 37.0225C71.712 37.1785 71.9798 37.3152 72.2567 37.4313C72.5748 37.559 72.9149 37.6233 73.2579 37.6207C73.5586 37.643 73.859 37.5735 74.119 37.4213C74.215 37.3639 74.2935 37.2817 74.3464 37.1834C74.3993 37.0851 74.4245 36.9744 74.4193 36.863C74.4224 36.7707 74.4062 36.6787 74.3717 36.5929C74.3373 36.5071 74.2853 36.4293 74.2191 36.3645C74.0425 36.2196 73.8327 36.1203 73.6083 36.0754L72.7573 35.8461C72.2962 35.749 71.8663 35.5402 71.5057 35.238C71.3704 35.0961 71.2652 34.9285 71.1964 34.7452C71.1276 34.5619 71.0966 34.3667 71.1052 34.1712C71.1026 33.9336 71.1539 33.6984 71.2554 33.4833C71.3583 33.2638 71.5129 33.0723 71.706 32.925C71.9258 32.7623 72.1735 32.6407 72.4369 32.5661C72.7622 32.4732 73.0997 32.4295 73.4381 32.4365C73.7101 32.4323 73.9819 32.4557 74.2491 32.5063C74.4701 32.5412 74.6856 32.6049 74.8899 32.6957C75.0506 32.7586 75.1945 32.8575 75.3104 32.9849C75.4042 33.0893 75.4575 33.2236 75.4606 33.3637C75.4627 33.486 75.4316 33.6065 75.3705 33.7126C75.3133 33.803 75.2383 33.881 75.1502 33.9419C74.9351 33.8243 74.7108 33.7243 74.4794 33.6428C74.159 33.5255 73.8196 33.468 73.4782 33.4734C73.1919 33.4566 72.9069 33.5224 72.6572 33.6628C72.578 33.706 72.51 33.767 72.4586 33.841C72.4073 33.915 72.374 33.9999 72.3613 34.0889C72.3487 34.178 72.3571 34.2687 72.3858 34.354C72.4146 34.4392 72.4629 34.5166 72.527 34.58C72.6939 34.7184 72.894 34.8111 73.1077 34.8492L73.8286 35.0286C74.3464 35.1372 74.8285 35.3738 75.2303 35.7165C75.3987 35.857 75.5343 36.0324 75.6277 36.2304C75.721 36.4284 75.77 36.6443 75.771 36.863Z" fill="white"/>
<path d="M78.3141 30.8016C78.3109 30.7 78.3288 30.5989 78.3667 30.5045C78.4046 30.4102 78.4617 30.3246 78.5344 30.2533C78.6094 30.1799 78.6988 30.1225 78.7969 30.0848C78.8951 30.0471 78.9999 30.0298 79.1051 30.0339C79.2103 30.0286 79.3155 30.0453 79.4139 30.0831C79.5122 30.1209 79.6014 30.1789 79.6758 30.2533C79.8102 30.4046 79.8844 30.5996 79.8844 30.8016C79.8844 31.0036 79.8102 31.1986 79.6758 31.3499C79.6014 31.4243 79.5122 31.4823 79.4139 31.5201C79.3155 31.5579 79.2103 31.5746 79.1051 31.5693C78.9999 31.5734 78.8951 31.5561 78.7969 31.5184C78.6988 31.4806 78.6094 31.4233 78.5344 31.3499C78.4617 31.2786 78.4046 31.193 78.3667 31.0987C78.3288 31.0043 78.3109 30.9032 78.3141 30.8016ZM79.7559 38.4582C79.6796 38.4929 79.5986 38.5164 79.5156 38.528C79.3957 38.5396 79.275 38.5396 79.1551 38.528C78.9687 38.5448 78.7819 38.4992 78.6245 38.3984C78.5604 38.3393 78.5108 38.2662 78.4796 38.185C78.4484 38.1038 78.4363 38.0165 78.4442 37.9298V32.646L78.7046 32.5861C78.8208 32.5698 78.9388 32.5698 79.055 32.5861C79.2427 32.5707 79.4301 32.62 79.5856 32.7257C79.65 32.7864 79.699 32.8614 79.7285 32.9446C79.7581 33.0278 79.7675 33.1168 79.7559 33.2043V38.4582Z" fill="white"/>
<path d="M84.1012 32.9749H86.4642C86.5092 33.0386 86.543 33.1093 86.5643 33.1843C86.5767 33.2869 86.5767 33.3907 86.5643 33.4933C86.5643 33.8423 86.4041 34.0117 86.0837 34.0117H84.1012V38.4582C84.0244 38.4914 83.9437 38.5148 83.8609 38.528C83.7444 38.5387 83.6271 38.5387 83.5105 38.528C83.3241 38.5448 83.1373 38.4992 82.9799 38.3984C82.9158 38.3392 82.8662 38.2662 82.835 38.1849C82.8037 38.1037 82.7916 38.0164 82.7996 37.9298V32.2372C82.7931 31.8972 82.8508 31.559 82.9698 31.2402C83.0704 30.9777 83.2357 30.7445 83.4504 30.5623C83.671 30.3765 83.9313 30.2435 84.2114 30.1735C84.5376 30.0848 84.8745 30.0412 85.2126 30.0439C85.6173 30.0229 86.0215 30.0945 86.3941 30.2532C86.5122 30.2925 86.6151 30.3672 86.6886 30.4673C86.7622 30.5673 86.8027 30.6876 86.8046 30.8115C86.8068 30.9176 86.7863 31.023 86.7445 31.1206C86.6984 31.2043 86.6412 31.2814 86.5743 31.3499C86.3945 31.2818 86.2106 31.2252 86.0236 31.1804C85.8139 31.1288 85.5988 31.102 85.3828 31.1006C85.0256 31.0645 84.668 31.1642 84.3816 31.3798C84.2711 31.502 84.1874 31.6458 84.1356 31.802C84.0839 31.9581 84.0654 32.1233 84.0812 32.287L84.1012 32.9749ZM87.8158 30.8015C87.814 30.597 87.8931 30.4 88.0361 30.2532C88.113 30.1795 88.2041 30.1221 88.3039 30.0844C88.4037 30.0467 88.5102 30.0295 88.6168 30.0339C88.7206 30.0287 88.8242 30.0455 88.9209 30.0834C89.0176 30.1212 89.1051 30.1791 89.1775 30.2532C89.3119 30.4045 89.3861 30.5995 89.3861 30.8015C89.3861 31.0035 89.3119 31.1986 89.1775 31.3499C89.1051 31.424 89.0176 31.4819 88.9209 31.5197C88.8242 31.5575 88.7206 31.5744 88.6168 31.5692C88.5102 31.5735 88.4037 31.5564 88.3039 31.5187C88.2041 31.481 88.113 31.4236 88.0361 31.3499C87.9617 31.2788 87.9021 31.1937 87.8609 31.0996C87.8196 31.0055 87.7975 30.9042 87.7958 30.8015H87.8158ZM89.2676 38.4582C89.1876 38.4922 89.1034 38.5156 89.0173 38.528C88.9008 38.5391 88.7834 38.5391 88.6669 38.528C88.4774 38.5426 88.2882 38.4972 88.1262 38.3984C88.0657 38.337 88.0191 38.2634 87.9898 38.1826C87.9604 38.1017 87.9489 38.0155 87.956 37.9298V32.6459L88.2063 32.5861C88.3259 32.5703 88.4471 32.5703 88.5667 32.5861C88.7543 32.5722 88.9412 32.6214 89.0974 32.7257C89.1599 32.7877 89.2076 32.8629 89.237 32.9457C89.2665 33.0285 89.2769 33.1169 89.2676 33.2042V38.4582Z" fill="white"/>
<path d="M93.2927 36.2152C93.38 36.6393 93.6227 37.016 93.9735 37.2719C94.3619 37.5166 94.8158 37.6383 95.2751 37.6209C95.616 37.6313 95.9557 37.5772 96.2763 37.4614C96.5248 37.3729 96.7604 37.2522 96.9772 37.1024C97.0819 37.1567 97.1697 37.2382 97.2315 37.3383C97.2932 37.4383 97.3264 37.5533 97.3276 37.6707C97.3211 37.8197 97.2606 37.9614 97.1574 38.0695C97.0344 38.2027 96.8842 38.3081 96.7169 38.3786C96.506 38.4749 96.2841 38.5452 96.0561 38.5879C95.7856 38.6406 95.5107 38.6673 95.2351 38.6677C94.7858 38.6722 94.3391 38.6014 93.9134 38.4583C93.5391 38.3357 93.197 38.1314 92.9122 37.8601C92.6194 37.5815 92.3936 37.2407 92.2514 36.8632C92.0914 36.4257 92.0134 35.9628 92.0211 35.4973C92.0139 35.0449 92.092 34.5952 92.2514 34.1714C92.3801 33.8136 92.589 33.4897 92.8621 33.2243C93.1175 32.9624 93.4289 32.7613 93.7733 32.6361C94.1309 32.499 94.5115 32.4313 94.8946 32.4367C95.2672 32.4305 95.6375 32.4948 95.986 32.6261C96.3038 32.7455 96.5935 32.9287 96.837 33.1645C97.0776 33.3982 97.2653 33.6803 97.3877 33.9919C97.5163 34.3089 97.5842 34.6471 97.588 34.9889C97.6017 35.1587 97.5477 35.327 97.4378 35.4575C97.3122 35.5614 97.1593 35.6271 96.9972 35.6469L93.2927 36.2152ZM94.8446 33.4536C94.6327 33.446 94.4215 33.483 94.2249 33.562C94.0282 33.641 93.8505 33.7603 93.7032 33.9122C93.3839 34.2837 93.2128 34.7592 93.2226 35.2481L96.2964 34.8094C96.279 34.44 96.134 34.0878 95.8859 33.8125C95.7473 33.6832 95.583 33.5844 95.4036 33.5226C95.2242 33.4607 95.0337 33.4372 94.8446 33.4536Z" fill="white"/>
<path d="M102.744 32.4366C102.983 32.4369 103.222 32.4636 103.455 32.5164C103.657 32.5603 103.852 32.6307 104.036 32.7258V30.3331L104.286 30.2732C104.403 30.2618 104.52 30.2618 104.637 30.2732C104.809 30.2621 104.98 30.3039 105.127 30.3929C105.192 30.4516 105.242 30.5245 105.273 30.6059C105.304 30.6872 105.316 30.7748 105.307 30.8615V37.4414C105.312 37.5917 105.273 37.7402 105.197 37.8701C105.103 37.9982 104.983 38.1066 104.847 38.1891C104.604 38.3384 104.341 38.4526 104.066 38.5281C103.7 38.641 103.318 38.6948 102.934 38.6876C102.494 38.6899 102.055 38.6261 101.633 38.4981C101.261 38.3891 100.919 38.1983 100.632 37.9398C100.342 37.6628 100.122 37.3211 99.9909 36.9429C99.6906 36.0364 99.6906 35.0579 99.9909 34.1514C100.118 33.7934 100.324 33.4685 100.594 33.2009C100.865 32.9334 101.192 32.7301 101.553 32.6061C101.937 32.4814 102.34 32.4241 102.744 32.4366ZM104.046 33.8324C103.892 33.7272 103.724 33.6465 103.545 33.5931C103.339 33.5222 103.122 33.4884 102.904 33.4934C102.669 33.4876 102.435 33.5248 102.214 33.6031C101.999 33.6778 101.806 33.8046 101.653 33.972C101.486 34.1643 101.36 34.3881 101.282 34.6299C101.179 34.952 101.132 35.2891 101.142 35.6269C101.118 35.9031 101.15 36.1813 101.236 36.4451C101.322 36.7088 101.461 36.9526 101.643 37.1622C101.819 37.3236 102.026 37.4482 102.251 37.5286C102.476 37.6091 102.716 37.6438 102.955 37.6308C103.168 37.6391 103.381 37.6121 103.585 37.551C103.745 37.5036 103.899 37.4402 104.046 37.3616V33.8324Z" fill="white"/>
<path d="M112.456 38.2988C112.389 38.2287 112.336 38.1458 112.302 38.055C112.267 37.9642 112.252 37.8673 112.256 37.7704V30.8614H112.526C112.646 30.8457 112.767 30.8457 112.887 30.8614C113.077 30.8491 113.267 30.898 113.427 31.001C113.492 31.0637 113.542 31.1401 113.574 31.2247C113.605 31.3093 113.616 31.3998 113.608 31.4895V37.4713H116.992C117.042 37.5385 117.082 37.6123 117.112 37.6906C117.128 37.7963 117.128 37.9039 117.112 38.0096C117.122 38.1681 117.072 38.3245 116.972 38.4483C116.926 38.498 116.871 38.5371 116.808 38.563C116.746 38.5888 116.679 38.6007 116.611 38.5978H112.937C112.841 38.5829 112.748 38.5487 112.666 38.4973C112.583 38.4459 112.512 38.3783 112.456 38.2988Z" fill="white"/>
<path d="M119.555 30.8015C119.554 30.6993 119.574 30.5979 119.613 30.5036C119.653 30.4093 119.711 30.3241 119.785 30.2532C119.86 30.1798 119.95 30.1225 120.048 30.0848C120.146 30.047 120.251 30.0297 120.356 30.0339C120.46 30.028 120.564 30.0446 120.66 30.0824C120.757 30.1203 120.845 30.1785 120.917 30.2532C121.058 30.4013 121.136 30.5975 121.136 30.8015C121.136 31.0055 121.058 31.2017 120.917 31.3499C120.845 31.4245 120.757 31.4828 120.66 31.5206C120.564 31.5585 120.46 31.5751 120.356 31.5692C120.251 31.5733 120.146 31.556 120.048 31.5183C119.95 31.4806 119.86 31.4232 119.785 31.3499C119.711 31.279 119.653 31.1938 119.613 31.0995C119.574 31.0051 119.554 30.9037 119.555 30.8015ZM121.007 38.4582C120.93 38.4913 120.849 38.5148 120.767 38.5279C120.647 38.5387 120.526 38.5387 120.406 38.5279C120.22 38.5448 120.033 38.4991 119.875 38.3983C119.811 38.3392 119.762 38.2662 119.731 38.1849C119.699 38.1037 119.687 38.0164 119.695 37.9298V32.6459L119.956 32.5861C120.072 32.5697 120.19 32.5697 120.306 32.5861C120.494 32.5722 120.68 32.6214 120.837 32.7257C120.901 32.7863 120.95 32.8614 120.98 32.9445C121.009 33.0277 121.018 33.1167 121.007 33.2042V38.4582Z" fill="white"/>
<path d="M128.406 36.863C128.417 37.1174 128.366 37.3708 128.258 37.6016C128.15 37.8324 127.988 38.0339 127.785 38.189C127.25 38.5416 126.613 38.7097 125.973 38.6675C125.671 38.6684 125.369 38.6417 125.072 38.5878C124.827 38.5475 124.588 38.4771 124.361 38.3784C124.193 38.2952 124.041 38.1839 123.91 38.0494C123.807 37.9342 123.75 37.7851 123.75 37.6307C123.75 37.5087 123.781 37.3887 123.84 37.2817C123.899 37.1748 123.986 37.0853 124.091 37.0225C124.347 37.1785 124.615 37.3152 124.892 37.4313C125.225 37.5656 125.583 37.63 125.943 37.6207C126.244 37.643 126.544 37.5735 126.804 37.4213C126.9 37.3639 126.979 37.2817 127.031 37.1834C127.084 37.0851 127.11 36.9744 127.104 36.863C127.107 36.7707 127.091 36.6787 127.057 36.5929C127.022 36.5071 126.97 36.4293 126.904 36.3645C126.728 36.2196 126.518 36.1203 126.293 36.0754L125.442 35.8461C124.981 35.749 124.551 35.5402 124.191 35.238C124.055 35.0961 123.95 34.9285 123.881 34.7452C123.813 34.5619 123.782 34.3667 123.79 34.1712C123.788 33.9336 123.839 33.6984 123.94 33.4833C124.043 33.2638 124.198 33.0723 124.391 32.925C124.611 32.7623 124.858 32.6407 125.122 32.5661C125.447 32.4732 125.785 32.4295 126.123 32.4365C126.395 32.4323 126.667 32.4557 126.934 32.5063C127.155 32.5412 127.371 32.6049 127.575 32.6957C127.736 32.7586 127.88 32.8575 127.995 32.9849C128.097 33.0929 128.155 33.2354 128.156 33.3836C128.158 33.5059 128.127 33.6265 128.066 33.7326C128.008 33.8229 127.933 33.9009 127.845 33.9619C127.631 33.8424 127.407 33.7423 127.174 33.6628C126.854 33.5445 126.515 33.487 126.173 33.4933C125.887 33.4766 125.602 33.5423 125.352 33.6827C125.273 33.726 125.205 33.787 125.154 33.861C125.102 33.9349 125.069 34.0198 125.056 34.1089C125.044 34.1979 125.052 34.2886 125.081 34.3739C125.11 34.4591 125.158 34.5365 125.222 34.5999C125.389 34.7383 125.589 34.8311 125.803 34.8691L126.524 35.0486C127.041 35.1571 127.524 35.3937 127.925 35.7365C128.08 35.8803 128.203 36.0548 128.286 36.2489C128.369 36.443 128.41 36.6522 128.406 36.863Z" fill="white"/>
<path d="M132.611 37.3714C132.831 37.5033 133.086 37.5659 133.342 37.5509C133.494 37.5493 133.645 37.5292 133.793 37.491C133.92 37.4648 134.044 37.4247 134.163 37.3714C134.224 37.442 134.278 37.5189 134.323 37.6007C134.374 37.6919 134.399 37.7955 134.393 37.8998C134.392 38.0108 134.36 38.1194 134.302 38.2141C134.244 38.3088 134.161 38.3862 134.063 38.4381C133.755 38.6001 133.409 38.676 133.062 38.6575C132.53 38.686 132.004 38.5349 131.57 38.2288C131.374 38.0583 131.221 37.8435 131.126 37.6025C131.03 37.3614 130.993 37.101 131.019 36.843V30.9909L131.27 30.9311C131.382 30.9152 131.497 30.9152 131.61 30.9311C131.801 30.9124 131.993 30.9618 132.151 31.0706C132.21 31.1301 132.256 31.2023 132.283 31.2817C132.311 31.3611 132.32 31.4457 132.311 31.5292V32.7754H134.253C134.29 32.8419 134.321 32.912 134.343 32.9848C134.357 33.0806 134.357 33.178 134.343 33.2739C134.343 33.6328 134.183 33.8222 133.873 33.8222H132.261V36.8131C132.272 36.9268 132.309 37.0364 132.37 37.1333C132.431 37.2302 132.513 37.3117 132.611 37.3714Z" fill="white"/>
<path d="M136.936 30.8016C136.933 30.7 136.951 30.5989 136.989 30.5045C137.027 30.4102 137.084 30.3246 137.157 30.2533C137.232 30.1799 137.321 30.1225 137.419 30.0848C137.517 30.0471 137.622 30.0298 137.727 30.0339C137.833 30.0279 137.938 30.0444 138.037 30.0822C138.135 30.12 138.224 30.1783 138.298 30.2533C138.433 30.4045 138.507 30.5996 138.507 30.8016C138.507 31.0036 138.433 31.1986 138.298 31.3499C138.224 31.4248 138.135 31.4831 138.037 31.521C137.938 31.5588 137.833 31.5752 137.727 31.5692C137.524 31.5857 137.322 31.5211 137.167 31.3898C137.087 31.3148 137.025 31.2232 136.985 31.1214C136.945 31.0197 136.929 30.9105 136.936 30.8016ZM138.378 38.4582C138.301 38.4914 138.221 38.5148 138.138 38.528C138.018 38.5396 137.897 38.5396 137.778 38.528C137.591 38.5448 137.404 38.4992 137.247 38.3984C137.183 38.3392 137.133 38.2662 137.102 38.185C137.071 38.1037 137.059 38.0165 137.067 37.9298V32.6459L137.327 32.5861C137.443 32.5698 137.561 32.5698 137.677 32.5861C137.865 32.5707 138.052 32.6199 138.208 32.7257C138.272 32.7864 138.321 32.8614 138.351 32.9446C138.381 33.0278 138.39 33.1168 138.378 33.2042V38.4582Z" fill="white"/>
<path d="M145.027 33.7824C144.763 33.5749 144.431 33.4719 144.095 33.4933C143.831 33.4862 143.567 33.5233 143.314 33.603C143.109 33.6648 142.911 33.7484 142.724 33.8522V38.4581C142.644 38.4921 142.56 38.5156 142.473 38.5279C142.36 38.5387 142.246 38.5387 142.133 38.5279C141.944 38.5426 141.754 38.4972 141.592 38.3983C141.532 38.337 141.485 38.2634 141.456 38.1825C141.426 38.1017 141.415 38.0155 141.422 37.9298V33.8123C141.416 33.6523 141.454 33.4935 141.532 33.3537C141.634 33.2102 141.763 33.0882 141.913 32.9948C142.2 32.8298 142.506 32.6993 142.824 32.606C143.237 32.4893 143.666 32.4322 144.095 32.4365C144.772 32.397 145.443 32.5868 145.998 32.9749C146.233 33.1789 146.417 33.4348 146.535 33.7221C146.653 34.0094 146.702 34.3202 146.679 34.6298V38.4581C146.599 38.494 146.515 38.5176 146.428 38.5279C146.312 38.5391 146.194 38.5391 146.078 38.5279C145.891 38.5447 145.705 38.4991 145.547 38.3983C145.483 38.3392 145.434 38.2662 145.402 38.1849C145.371 38.1037 145.359 38.0164 145.367 37.9298V34.6797C145.382 34.5142 145.359 34.3475 145.3 34.192C145.242 34.0366 145.148 33.8965 145.027 33.7824Z" fill="white"/>
<path d="M153.477 37.9298C153.298 38.0464 153.102 38.1339 152.896 38.189C152.631 38.2572 152.359 38.2907 152.085 38.2887C151.728 38.2924 151.373 38.2385 151.034 38.1292C150.713 38.0287 150.419 37.8585 150.173 37.6307C149.91 37.378 149.705 37.072 149.572 36.7334C149.418 36.2982 149.343 35.839 149.352 35.3776C149.345 34.9423 149.42 34.5096 149.572 34.1014C149.707 33.7557 149.916 33.4429 150.183 33.1842C150.452 32.9328 150.774 32.7423 151.124 32.626C151.514 32.4938 151.924 32.4297 152.335 32.4365C152.718 32.4338 153.099 32.4841 153.467 32.5861C153.764 32.6725 154.047 32.8001 154.308 32.9649C154.438 33.044 154.551 33.1493 154.638 33.274C154.721 33.4014 154.763 33.5509 154.758 33.7027V38.6875C154.764 39.0612 154.689 39.4319 154.538 39.7741C154.398 40.06 154.192 40.3092 153.937 40.5019C153.665 40.7004 153.355 40.8427 153.026 40.9206C152.66 41.0114 152.283 41.055 151.905 41.0502C151.534 41.056 151.164 41.0159 150.804 40.9306C150.57 40.8721 150.345 40.7851 150.133 40.6714C150.017 40.6118 149.919 40.5218 149.85 40.4112C149.781 40.3006 149.744 40.1734 149.742 40.0433C149.739 39.9177 149.77 39.7936 149.832 39.6844C149.89 39.5941 149.965 39.5161 150.053 39.4551C150.291 39.6132 150.551 39.7374 150.824 39.824C151.146 39.9333 151.484 39.9872 151.825 39.9835C152.253 40.009 152.677 39.8971 153.036 39.6645C153.182 39.5438 153.297 39.3907 153.372 39.2174C153.446 39.0441 153.479 38.8557 153.467 38.6675L153.477 37.9298ZM152.265 37.2518C152.511 37.2587 152.756 37.2181 152.986 37.1322C153.159 37.0536 153.32 36.9531 153.467 36.8331V33.7924C153.323 33.7035 153.168 33.6331 153.006 33.583C152.796 33.519 152.576 33.4887 152.356 33.4933C152.131 33.4825 151.907 33.5177 151.697 33.5965C151.487 33.6754 151.295 33.7964 151.134 33.9519C150.967 34.1441 150.841 34.3674 150.762 34.6087C150.683 34.85 150.653 35.1046 150.673 35.3576C150.666 35.6546 150.707 35.9508 150.794 36.2349C150.861 36.457 150.977 36.6613 151.134 36.8331C151.27 36.9809 151.443 37.0908 151.635 37.1521C151.838 37.2207 152.051 37.2544 152.265 37.2518Z" fill="white"/>
<path d="M45.9342 25.6974C45.1298 25.775 44.3226 25.582 43.6413 25.1491C43.4008 24.8799 43.2202 24.5631 43.1115 24.2194C43.0028 23.8758 42.9684 23.5131 43.0106 23.1552V5.72839C42.9928 5.36334 43.1185 5.00575 43.361 4.73143C43.6414 4.45672 43.9852 4.25474 44.3622 4.14323C44.7902 3.99241 45.2286 3.87247 45.6739 3.78432C46.1645 3.69459 46.6751 3.60487 47.1757 3.53508C47.687 3.46296 48.2016 3.41638 48.7176 3.39551C49.2382 3.39551 49.7188 3.39551 50.1794 3.39551C53.4034 3.39551 55.8764 4.08341 57.5385 5.43927C58.3599 6.09635 59.0164 6.93479 59.4561 7.88823C59.8957 8.84167 60.1065 9.88393 60.0716 10.9325C60.0848 11.9979 59.8733 13.0541 59.4508 14.033C59.0464 14.9602 58.4332 15.7823 57.6586 16.4357C56.8139 17.1263 55.8409 17.6446 54.7951 17.9611C53.5472 18.3275 52.2513 18.5056 50.9504 18.4894H48.4673V25.4681H48.227L47.436 25.5878C46.9382 25.6553 46.4366 25.692 45.9342 25.6974ZM50.5899 14.2623C51.6123 14.3147 52.6232 14.0271 53.4635 13.4448C53.8298 13.1428 54.1189 12.7584 54.3069 12.3234C54.4949 11.8883 54.5764 11.415 54.5448 10.9425C54.5448 8.75914 53.2232 7.65252 50.62 7.65252C50.1928 7.65252 49.8123 7.65252 49.4785 7.65252C49.1448 7.65252 48.8111 7.69239 48.4773 7.77215H48.3872V14.2324L50.5899 14.2623Z" fill="white"/>
<path d="M69.5133 25.7969C68.6606 25.7959 67.8131 25.6647 67.0002 25.4081C65.8754 25.0345 64.8489 24.4145 63.9965 23.5937C62.9909 22.6178 62.191 21.4518 61.6436 20.1641C61.0388 18.9491 60.6977 17.621 60.6424 16.266C60.6118 15.1262 60.8305 13.9935 61.2832 12.9462C61.726 11.9492 62.3741 11.0559 63.1855 10.3242C64.0084 9.58524 64.9404 8.97664 65.9489 8.51967C66.9791 8.04846 68.0834 7.75838 69.213 7.66229H69.8638C70.663 7.65668 71.4578 7.78128 72.2167 8.03117C73.1563 8.32148 74.0232 8.80745 74.7598 9.45681C75.5228 10.1562 76.1329 11.0047 76.552 11.9492C76.6961 12.2142 76.7837 12.5058 76.8096 12.806C76.8354 13.1061 76.7989 13.4084 76.7022 13.6939C76.4362 14.2551 76.0072 14.724 75.4707 15.0398L67.4608 20.214L67.5409 20.3037C67.8542 20.6795 68.2415 20.9875 68.6789 21.2087C69.1162 21.4299 69.5945 21.5596 70.084 21.5898H70.3243C71.2697 21.5743 72.2011 21.3602 73.0577 20.9617C73.9314 20.5727 74.7415 20.0551 75.4607 19.4264C75.9999 18.97 76.4898 18.4587 76.9225 17.901L77.0426 17.7415H77.2429C77.5629 17.83 77.867 17.9679 78.144 18.1503C78.5045 18.3986 78.7859 18.7446 78.955 19.1472C79.1695 19.591 79.2191 20.0961 79.0952 20.5729C78.9286 21.1158 78.645 21.616 78.2641 22.0384C77.7813 22.5683 77.229 23.031 76.6221 23.4142C75.8847 23.8914 75.1115 24.3114 74.3093 24.6704C73.1079 25.2188 71.8274 25.5755 70.5146 25.7272C70.1742 25.777 69.8438 25.7969 69.5133 25.7969ZM69.0828 11.6601C68.5522 11.6775 68.0309 11.8031 67.5509 12.029C66.6483 12.4088 65.9299 13.1241 65.5485 14.0229C65.1619 15.0102 65.1619 16.1061 65.5485 17.0935V17.2131L71.5559 13.2253V13.1456C71.2233 12.5652 70.7052 12.1124 70.084 11.8595C69.7686 11.7221 69.4271 11.6541 69.0828 11.6601Z" fill="white"/>
<path d="M87.7156 25.9864C86.0649 26.0746 84.4343 25.5921 83.0999 24.6206C81.9986 23.7233 81.4479 22.2378 81.4479 20.1941V4.15303L81.6782 4.10318L82.4091 3.94366C82.865 3.8621 83.3275 3.82206 83.7908 3.82403C84.5725 3.75969 85.3545 3.94475 86.0235 4.35242C86.278 4.61329 86.4698 4.9283 86.5842 5.27369C86.6987 5.61909 86.7329 5.98585 86.6843 6.34633V8.73903H91.6905L91.7706 8.91848C91.8507 9.1079 91.9308 9.32723 92.0209 9.58644C92.1342 9.95474 92.1915 10.3378 92.1911 10.723C92.2173 11.0048 92.1875 11.2889 92.1033 11.5592C92.0191 11.8295 91.8822 12.0806 91.7005 12.2982C91.5301 12.4595 91.3288 12.585 91.1086 12.6672C90.8884 12.7494 90.6539 12.7867 90.4189 12.7767H86.6443V19.8352C86.6113 20.1364 86.6576 20.4409 86.7788 20.7189C86.8999 20.9968 87.0917 21.2386 87.3351 21.4203C87.8942 21.7601 88.5434 21.9235 89.1974 21.8889C89.5915 21.888 89.9843 21.8446 90.3689 21.7593C90.64 21.7063 90.9075 21.6363 91.1699 21.5499L91.3801 21.4801L91.5103 21.6596C91.6436 21.8347 91.7546 22.0255 91.8407 22.2279C91.9825 22.5411 92.0542 22.8813 92.051 23.2248C92.0549 23.6124 91.9662 23.9954 91.7921 24.3421C91.618 24.6889 91.3635 24.9893 91.0497 25.2187C90.0482 25.82 88.8806 26.0889 87.7156 25.9864Z" fill="white"/>
<path d="M100.772 26.0162C99.8565 26.0233 98.9421 25.9533 98.0385 25.8068C97.3052 25.6912 96.591 25.4765 95.9159 25.1688C95.3864 24.9254 94.9179 24.5678 94.5442 24.122C94.2411 23.7022 94.0894 23.1928 94.1137 22.6764C94.0961 22.2242 94.2034 21.7759 94.4241 21.3803C94.5754 21.11 94.7718 20.8673 95.0048 20.6625L95.1149 20.523L95.2951 20.6326C95.9898 21.0047 96.7129 21.3214 97.4578 21.5797C98.4676 21.9153 99.5273 22.0771 100.592 22.0583C102.364 22.0583 103.255 21.5399 103.255 20.523C103.26 20.3297 103.218 20.138 103.133 19.9644C103.047 19.7907 102.921 19.6403 102.764 19.526C102.282 19.2338 101.749 19.0343 101.192 18.9378L99.7506 18.6088C98.1625 18.3689 96.6628 17.7269 95.3953 16.7445C94.916 16.303 94.5416 15.7608 94.2991 15.1572C94.0567 14.5537 93.9523 13.9039 93.9935 13.2551C93.9572 12.4754 94.1221 11.6995 94.4727 11.0013C94.8233 10.3032 95.3477 9.70616 95.996 9.26731C97.6292 8.2091 99.5568 7.69262 101.503 7.79181C102.318 7.79009 103.132 7.85679 103.936 7.9912C104.628 8.09165 105.302 8.2897 105.938 8.57941C106.437 8.80895 106.876 9.15015 107.22 9.57636C107.531 9.94417 107.698 10.4115 107.69 10.8923C107.696 11.3174 107.6 11.7378 107.41 12.1186C107.281 12.3783 107.108 12.6143 106.899 12.8165L106.749 12.966L106.559 12.8663C106.355 12.7622 106.145 12.6722 105.928 12.5971C105.532 12.4419 105.128 12.3088 104.717 12.1984C104.263 12.0722 103.801 11.9756 103.335 11.9092C102.888 11.8404 102.436 11.8038 101.983 11.7996C101.298 11.7639 100.613 11.8832 99.9809 12.1485C99.7552 12.2356 99.5614 12.3891 99.4255 12.5886C99.2896 12.7881 99.2179 13.024 99.22 13.2651C99.213 13.4351 99.2498 13.604 99.3269 13.7559C99.404 13.9077 99.5189 14.0373 99.6605 14.1325C100.114 14.4045 100.612 14.5936 101.132 14.6908L102.504 15.0098C104.199 15.2648 105.795 15.9632 107.13 17.0336C107.59 17.4797 107.952 18.0175 108.19 18.6118C108.428 19.2061 108.537 19.8437 108.511 20.4831C108.548 21.2677 108.39 22.0493 108.051 22.7586C107.712 23.468 107.203 24.0835 106.569 24.5507C104.844 25.6439 102.812 26.1575 100.772 26.0162Z" fill="white"/>
<path d="M114.048 25.6974C113.259 25.7666 112.468 25.5888 111.785 25.1889C111.521 24.935 111.323 24.6207 111.208 24.2733C111.092 23.9259 111.064 23.5558 111.125 23.195V2.24893L111.355 2.19908C111.545 2.14924 111.785 2.10936 112.066 2.05951C112.543 1.98844 113.025 1.95511 113.508 1.95981C114.291 1.89449 115.076 2.07582 115.75 2.47823C116.012 2.73462 116.21 3.04849 116.328 3.39472C116.447 3.74096 116.482 4.10994 116.431 4.47215V25.4083H116.191L115.47 25.5279C115.001 25.6175 114.526 25.6741 114.048 25.6974Z" fill="white"/>
<path d="M122.989 25.6973C122.2 25.7639 121.41 25.5863 120.726 25.1889C120.466 24.932 120.271 24.6174 120.156 24.2709C120.041 23.9243 120.01 23.5557 120.066 23.195V8.5696L120.296 8.50978C120.496 8.50978 120.726 8.42006 120.997 8.38018C121.467 8.30468 121.942 8.268 122.419 8.27051C123.209 8.19882 124.002 8.38046 124.681 8.78893C124.937 9.04895 125.13 9.36387 125.244 9.7095C125.359 10.0551 125.392 10.4223 125.342 10.7828V25.4082H125.112L124.421 25.5278C123.948 25.6178 123.47 25.6744 122.989 25.6973ZM122.709 6.20681C122.312 6.22572 121.916 6.16189 121.545 6.0194C121.174 5.87691 120.837 5.6589 120.556 5.37934C120.289 5.10918 120.079 4.78796 119.94 4.43501C119.801 4.08207 119.734 3.7047 119.745 3.3256C119.74 2.95621 119.809 2.58952 119.949 2.2471C120.088 1.90468 120.294 1.59345 120.556 1.33169C121.144 0.799968 121.91 0.505371 122.704 0.505371C123.498 0.505371 124.264 0.799968 124.852 1.33169C125.115 1.59296 125.323 1.90388 125.464 2.24626C125.605 2.58864 125.676 2.95558 125.673 3.3256C125.683 3.71623 125.612 4.10476 125.463 4.4664C125.314 4.82803 125.092 5.15483 124.809 5.42594C124.526 5.69705 124.19 5.90651 123.822 6.04096C123.453 6.17541 123.06 6.23189 122.669 6.20681H122.709Z" fill="white"/>
<path d="M135.044 26.0163C134.125 26.023 133.208 25.953 132.301 25.807C131.568 25.6899 130.854 25.4753 130.178 25.1689C129.65 24.9281 129.184 24.57 128.817 24.1221C128.49 23.7113 128.316 23.2004 128.326 22.6765C128.314 22.2249 128.421 21.7782 128.636 21.3805C128.788 21.1102 128.984 20.8674 129.217 20.6627L129.377 20.5231L129.567 20.6327C130.261 21.0066 130.985 21.3234 131.73 21.5799C132.74 21.917 133.8 22.0788 134.864 22.0584C136.626 22.0584 137.517 21.54 137.517 20.5231C137.525 20.3294 137.484 20.1368 137.399 19.9628C137.313 19.7887 137.185 19.6386 137.027 19.5261C136.548 19.2336 136.018 19.034 135.465 18.9379L134.013 18.6089C132.428 18.3669 130.933 17.7251 129.668 16.7446C129.186 16.3045 128.809 15.7628 128.565 15.1591C128.321 14.5553 128.215 13.9049 128.256 13.2553C128.219 12.4756 128.384 11.6996 128.735 11.0014C129.086 10.3033 129.61 9.7063 130.258 9.26744C131.893 8.21175 133.819 7.69549 135.765 7.79194C136.58 7.7898 137.394 7.8565 138.198 7.99133C138.889 8.09584 139.563 8.29373 140.201 8.57954C140.696 8.81463 141.133 9.15494 141.482 9.57649C141.79 9.94572 141.953 10.4129 141.943 10.8925C141.947 11.2487 141.88 11.6022 141.746 11.9325C141.612 12.2628 141.413 12.5633 141.162 12.8166L141.002 12.9661L140.811 12.8665C140.61 12.764 140.403 12.6741 140.191 12.5973C139.791 12.4421 139.383 12.3089 138.969 12.1985C138.515 12.0733 138.054 11.9768 137.587 11.9094C137.14 11.8406 136.688 11.8039 136.236 11.7997C135.55 11.764 134.866 11.8833 134.233 12.1486C134.008 12.2369 133.815 12.3907 133.68 12.5899C133.544 12.7891 133.472 13.0245 133.472 13.2652C133.465 13.4352 133.502 13.6042 133.579 13.756C133.656 13.9078 133.771 14.0375 133.913 14.1326C134.366 14.4046 134.865 14.5937 135.385 14.6909L136.756 15.0099C138.459 15.2673 140.06 15.9767 141.392 17.0636C141.853 17.5098 142.214 18.0475 142.452 18.6418C142.69 19.2362 142.8 19.8738 142.774 20.5131C142.81 21.2978 142.652 22.0793 142.313 22.7887C141.974 23.4981 141.466 24.1135 140.831 24.5807C139.106 25.662 137.078 26.1651 135.044 26.0163Z" fill="white"/>
<path d="M151.555 25.9864C149.89 26.0857 148.243 25.6025 146.899 24.6206C145.797 23.7233 145.237 22.2378 145.237 20.1941V4.15303L145.477 4.10318L146.208 3.94366C146.664 3.86166 147.126 3.82161 147.59 3.82403C148.371 3.75969 149.153 3.94475 149.822 4.35242C150.077 4.61329 150.269 4.9283 150.383 5.27369C150.498 5.61909 150.532 5.98585 150.483 6.34633V8.73903H155.489L155.57 8.91848C155.65 9.1079 155.73 9.3372 155.81 9.58644C155.931 9.95309 155.992 10.3369 155.99 10.723C156.016 11.0048 155.986 11.2889 155.902 11.5592C155.818 11.8295 155.681 12.0806 155.499 12.2982C155.329 12.4595 155.128 12.585 154.907 12.6672C154.687 12.7494 154.453 12.7867 154.218 12.7767H150.483V19.8352C150.45 20.1374 150.498 20.4429 150.621 20.7211C150.744 20.9993 150.938 21.2404 151.184 21.4203C151.743 21.7601 152.392 21.9235 153.046 21.8889C153.44 21.888 153.833 21.8446 154.218 21.7593C154.489 21.705 154.756 21.6351 155.019 21.5499L155.189 21.4203L155.319 21.5998C155.453 21.7748 155.564 21.9657 155.65 22.168C155.791 22.4813 155.863 22.8214 155.86 23.165C155.867 23.548 155.785 23.9275 155.62 24.2735C155.455 24.6196 155.212 24.9227 154.909 25.1589C153.908 25.7853 152.733 26.0753 151.555 25.9864Z" fill="white"/>
<path d="M35.9443 39.7445C35.676 39.7461 35.4101 39.6939 35.1625 39.5912C34.9148 39.4884 34.6904 39.3372 34.5026 39.1464L28.0346 32.6661C24.978 35.0871 21.1865 36.4031 17.2808 36.3984C13.3752 36.3938 9.58679 35.0689 6.53603 32.6407C3.48526 30.2124 1.35289 26.8247 0.488063 23.0323C-0.376764 19.2398 0.0772007 15.2673 1.77563 11.7653C3.47405 8.26331 6.31629 5.43925 9.83696 3.75556C13.3576 2.07188 17.3481 1.62833 21.155 2.49756C24.9618 3.36679 28.3595 5.49729 30.7916 8.54019C33.2238 11.5831 34.5463 15.3581 34.5426 19.2471C34.5584 23.0672 33.2777 26.7805 30.9081 29.7849L37.4362 36.2851C37.6284 36.4709 37.7813 36.6933 37.8857 36.9391C37.99 37.1848 38.0438 37.4489 38.0438 37.7157C38.0438 37.9825 37.99 38.2466 37.8857 38.4924C37.7813 38.7381 37.6284 38.9605 37.4362 39.1464C37.2425 39.3433 37.01 39.4982 36.7532 39.6011C36.4964 39.7041 36.221 39.7529 35.9443 39.7445ZM17.2513 6.12713C13.7594 6.12713 10.4105 7.50836 7.94134 9.96695C5.47219 12.4256 4.08503 15.7601 4.08503 19.2371C4.08503 22.7141 5.47219 26.0487 7.94134 28.5073C10.4105 30.9659 13.7594 32.3471 17.2513 32.3471C20.3442 32.3441 23.3381 31.261 25.7117 29.2864C25.982 29.0571 26.2824 28.788 26.5528 28.5088C28.3941 26.6759 29.6484 24.3406 30.157 21.798C30.6656 19.2555 30.4057 16.6198 29.4101 14.2243C28.4146 11.8288 26.7281 9.78099 24.5639 8.33973C22.3997 6.89847 19.8549 6.12849 17.2513 6.12713Z" fill="white"/>
<path d="M20.7825 25.5471C19.5336 25.5539 18.3223 25.1216 17.3622 24.3262C16.4046 25.1271 15.1926 25.5635 13.942 25.5578C12.5158 25.5578 11.1479 24.9937 10.1394 23.9895C9.13091 22.9853 8.56433 21.6233 8.56433 20.2031V19.7747H10.5433V20.2031C10.5437 20.82 10.7123 21.4252 11.0312 21.9541C11.3502 22.483 11.8074 22.9157 12.354 23.2061C12.9007 23.4964 13.5163 23.6334 14.135 23.6024C14.7538 23.5715 15.3525 23.3738 15.8672 23.0304C14.2324 21.7131 13.2429 18.586 13.1999 18.4361L13.0923 18.1041L13.4043 17.9327C14.6405 17.2431 16.0313 16.8747 17.4483 16.8618C18.8359 16.8396 20.2012 17.2111 21.3848 17.9327L21.6429 18.1148L21.5461 18.4039C21.5461 18.5539 20.5243 21.6703 18.8895 22.9876C19.4525 23.3735 20.1205 23.579 20.804 23.5766C21.7121 23.5766 22.5831 23.2181 23.2262 22.5798C23.8694 21.9414 24.2321 21.0752 24.2349 20.171V19.7426H26.1386V20.171C26.1415 20.8742 26.0052 21.571 25.7375 22.2218C25.4699 22.8725 25.0761 23.4644 24.5788 23.9636C24.0814 24.4629 23.4901 24.8596 22.8388 25.1313C22.1874 25.403 21.4887 25.5443 20.7825 25.5471Z" fill="white"/>
<path d="M14.6519 15.8121C15.531 15.8121 16.2437 15.1025 16.2437 14.2271C16.2437 13.3517 15.531 12.6421 14.6519 12.6421C13.7727 12.6421 13.0601 13.3517 13.0601 14.2271C13.0601 15.1025 13.7727 15.8121 14.6519 15.8121Z" fill="white"/>
<path d="M19.9973 15.8121C20.8764 15.8121 21.5891 15.1025 21.5891 14.2271C21.5891 13.3517 20.8764 12.6421 19.9973 12.6421C19.1181 12.6421 18.4055 13.3517 18.4055 14.2271C18.4055 15.1025 19.1181 15.8121 19.9973 15.8121Z" fill="white"/>
</g>
<defs>
<clipPath id="clip0_0_3120">
<rect width="158" height="41" fill="white"/>
</clipPath>
</defs>
</svg>
