<svg width="99" height="39" viewBox="0 0 99 39" fill="none" xmlns="http://www.w3.org/2000/svg">
<path d="M96.9887 6.03753L98.9693 3.38047C95.895 1.11287 92.1783 -0.0727 88.3826 0.00345212C84.5869 0.0796042 80.919 1.41332 77.9349 3.80247C75.432 5.84316 72.3209 6.9551 69.1142 6.9551C65.9075 6.9551 62.7965 5.84316 60.2936 3.80247C57.2095 1.34094 53.4036 0.00322071 49.4846 0.00322071C45.5656 0.00322071 41.7598 1.34094 38.6757 3.80247C36.1728 5.84316 33.0618 6.9551 29.8551 6.9551C26.6484 6.9551 23.5373 5.84316 21.0344 3.80247C18.0503 1.41332 14.3824 0.0796042 10.5867 0.00345212C6.79095 -0.0727 3.07429 1.11287 0 3.38047L1.98061 6.03753C4.39459 4.28757 7.2775 3.33295 10.2408 3.30232C13.4355 3.33365 16.5317 4.43188 19.0538 6.42828C22.1307 8.86093 25.9057 10.2005 29.8013 10.242C33.697 10.2005 37.472 8.86093 40.5489 6.42828C43.0541 4.38635 46.1678 3.27379 49.3772 3.27379C52.5865 3.27379 55.7002 4.38635 58.2055 6.42828C61.2872 8.88856 65.0904 10.2256 69.0067 10.2256C72.9231 10.2256 76.7263 8.88856 79.808 6.42828C82.2265 4.43896 85.2244 3.32158 88.3329 3.25089C91.4414 3.18019 94.4853 4.16015 96.9887 6.03753Z" fill="white"/>
<path d="M1.98061 20.4169C4.47697 18.5707 7.49995 17.6106 10.5847 17.684C13.6693 17.7574 16.6449 18.8604 19.0538 20.8232C22.1321 23.2913 25.9366 24.6333 29.8551 24.6333C33.7735 24.6333 37.578 23.2913 40.6563 20.8232C43.1651 18.7893 46.2775 17.6819 49.4846 17.6819C52.6918 17.6819 55.8042 18.7893 58.313 20.8232C61.3902 23.2939 65.1951 24.6376 69.1142 24.6376C73.0334 24.6376 76.8383 23.2939 79.9155 20.8232C82.3243 18.8604 85.2999 17.7574 88.3846 17.684C91.4693 17.6106 94.4923 18.5707 96.9887 20.4169L98.9693 17.7598C95.896 15.4897 92.1789 14.3027 88.3825 14.3788C84.5862 14.455 80.9179 15.7902 77.9349 18.1818C75.4285 20.2145 72.3187 21.3213 69.1142 21.3213C65.9097 21.3213 62.8 20.2145 60.2936 18.1818C57.2117 15.7151 53.405 14.3741 49.4846 14.3741C45.5643 14.3741 41.7576 15.7151 38.6757 18.1818C36.1693 20.2145 33.0596 21.3213 29.8551 21.3213C26.6505 21.3213 23.5408 20.2145 21.0344 18.1818C18.0514 15.7902 14.3831 14.455 10.5868 14.3788C6.79039 14.3027 3.07332 15.4897 0 17.7598L1.98061 20.4169Z" fill="white"/>
<path d="M58.3437 35.2026C61.4254 37.6629 65.2286 39 69.1449 39C73.0613 39 76.8645 37.6629 79.9462 35.2026C82.3522 33.235 85.3273 32.1277 88.4127 32.0515C91.498 31.9752 94.5223 32.9342 97.0194 34.7806L99 32.1236C95.9257 29.856 92.209 28.6704 88.4133 28.7466C84.6176 28.8227 80.9497 30.1564 77.9656 32.5456C75.4627 34.5863 72.3516 35.6982 69.1449 35.6982C65.9382 35.6982 62.8272 34.5863 60.3243 32.5456C57.2413 30.0815 53.435 28.7421 49.5154 28.7421C45.5957 28.7421 41.7894 30.0815 38.7064 32.5456C36.2035 34.5863 33.0925 35.6982 29.8858 35.6982C26.6791 35.6982 23.568 34.5863 21.0651 32.5456C18.0783 30.149 14.4045 28.8109 10.6022 28.7347C6.79984 28.6586 3.0771 29.8485 0 32.1236L1.98061 34.7806C4.47765 32.9342 7.50198 31.9752 10.5873 32.0515C13.6727 32.1277 16.6478 33.235 19.0538 35.2026C22.1355 37.6629 25.9387 39 29.8551 39C33.7714 39 37.5746 37.6629 40.6563 35.2026C43.1604 33.158 46.2746 32.0438 49.4846 32.0438C52.6947 32.0438 55.8088 33.158 58.313 35.2026H58.3437Z" fill="white"/>
</svg>
