<svg width="136" height="148" viewBox="0 0 136 148" fill="none" xmlns="http://www.w3.org/2000/svg">
<path d="M68.0177 73.6889C44.8572 104.222 17.1092 122.168 6.04094 113.773C-5.02735 105.377 4.77533 73.8188 27.9359 43.2855C51.0964 12.7522 78.8443 -5.19398 89.9126 3.20168C100.981 11.5973 91.1782 43.1555 68.0177 73.6889ZM68.0177 73.6889C44.8572 104.222 35.0545 135.78 46.1228 144.176C57.191 152.572 84.939 134.626 108.1 104.092C131.26 73.5589 141.063 42.0007 129.994 33.605C118.926 25.2094 91.1782 43.1555 68.0177 73.6889ZM88.0586 88.8905C64.8981 119.424 37.1501 137.37 26.0818 128.974C15.0136 120.579 24.8162 89.0205 47.9768 58.4872C71.1373 27.9538 98.8852 10.0077 109.954 18.4034C121.022 26.799 111.219 58.3572 88.0586 88.8905Z" stroke="#F9F7F8" stroke-width="2" stroke-miterlimit="10"/>
</svg>
