<svg width="111" height="110" viewBox="0 0 111 110" fill="none" xmlns="http://www.w3.org/2000/svg">
<path d="M2.41033 1.19419C2.41033 1.43037 2.33965 1.66125 2.20723 1.85763C2.0748 2.054 1.88658 2.20706 1.66636 2.29745C1.44615 2.38783 1.20383 2.41148 0.970051 2.3654C0.736272 2.31932 0.521532 2.20559 0.352986 2.03858C0.184441 1.87158 0.0696596 1.6588 0.023158 1.42716C-0.0233436 1.19551 0.000522736 0.955406 0.0917389 0.737202C0.182955 0.518997 0.337424 0.332495 0.535613 0.201279C0.733801 0.0700633 0.966808 2.70817e-05 1.20517 2.70817e-05C1.36364 -0.000722473 1.5207 0.0296537 1.66726 0.0894004C1.81382 0.149147 1.94697 0.23708 2.05903 0.348117C2.1711 0.459155 2.25984 0.591096 2.32014 0.736316C2.38043 0.881537 2.41109 1.03716 2.41033 1.19419Z" fill="#EF8BB6"/>
<path d="M18.1289 1.19417C18.1289 1.43036 18.0582 1.66123 17.9258 1.85761C17.7934 2.05399 17.6051 2.20705 17.3849 2.29743C17.1647 2.38782 16.9224 2.41146 16.6886 2.36539C16.4548 2.31931 16.2401 2.20558 16.0715 2.03857C15.903 1.87157 15.7882 1.65879 15.7417 1.42714C15.6952 1.1955 15.7191 0.955392 15.8103 0.737188C15.9015 0.518984 16.056 0.332482 16.2542 0.201266C16.4524 0.0700498 16.6854 1.35409e-05 16.9237 1.35409e-05C17.0822 -0.000736014 17.2393 0.0296402 17.3858 0.0893868C17.5324 0.149133 17.6655 0.237066 17.7776 0.348104C17.8897 0.459141 17.9784 0.591082 18.0387 0.736303C18.099 0.881523 18.1297 1.03714 18.1289 1.19417Z" fill="#EF8BB6"/>
<path d="M33.8475 1.19417C33.8475 1.43036 33.7768 1.66123 33.6444 1.85761C33.5119 2.05399 33.3237 2.20705 33.1035 2.29743C32.8833 2.38782 32.641 2.41146 32.4072 2.36539C32.1734 2.31931 31.9587 2.20558 31.7901 2.03857C31.6216 1.87157 31.5068 1.65879 31.4603 1.42714C31.4138 1.1955 31.4377 0.955392 31.5289 0.737188C31.6201 0.518984 31.7746 0.332482 31.9727 0.201266C32.1709 0.0700498 32.4039 1.35409e-05 32.6423 1.35409e-05C32.8008 -0.000736014 32.9578 0.0296402 33.1044 0.0893868C33.2509 0.149133 33.3841 0.237066 33.4962 0.348104C33.6082 0.459141 33.697 0.591082 33.7573 0.736303C33.8176 0.881523 33.8482 1.03714 33.8475 1.19417Z" fill="#EF8BB6"/>
<path d="M48.3609 2.38833C49.0265 2.38833 49.566 1.85369 49.566 1.19417C49.566 0.534657 49.0265 1.35409e-05 48.3609 1.35409e-05C47.6953 1.35409e-05 47.1557 0.534657 47.1557 1.19417C47.1557 1.85369 47.6953 2.38833 48.3609 2.38833Z" fill="#EF8BB6"/>
<path d="M2.41033 16.6334C2.41033 16.8695 2.33965 17.1004 2.20723 17.2968C2.0748 17.4932 1.88658 17.6462 1.66636 17.7366C1.44615 17.827 1.20383 17.8506 0.97005 17.8046C0.736271 17.7585 0.521531 17.6448 0.352986 17.4778C0.18444 17.3107 0.0696591 17.098 0.0231575 16.8663C-0.0233441 16.6347 0.000522184 16.3946 0.0917384 16.1764C0.182955 15.9582 0.337424 15.7717 0.535612 15.6404C0.733801 15.5092 0.966807 15.4392 1.20517 15.4392C1.36364 15.4384 1.5207 15.4688 1.66726 15.5286C1.81382 15.5883 1.94697 15.6762 2.05903 15.7873C2.1711 15.8983 2.25984 16.0303 2.32014 16.1755C2.38043 16.3207 2.41109 16.4763 2.41033 16.6334Z" fill="#EF8BB6"/>
<path d="M18.1289 16.6334C18.1289 16.8695 18.0582 17.1004 17.9258 17.2968C17.7934 17.4932 17.6051 17.6462 17.3849 17.7366C17.1647 17.827 16.9224 17.8506 16.6886 17.8046C16.4548 17.7585 16.2401 17.6448 16.0715 17.4778C15.903 17.3107 15.7882 17.098 15.7417 16.8663C15.6952 16.6347 15.7191 16.3946 15.8103 16.1764C15.9015 15.9582 16.056 15.7717 16.2542 15.6404C16.4524 15.5092 16.6854 15.4392 16.9237 15.4392C17.0822 15.4384 17.2393 15.4688 17.3858 15.5286C17.5324 15.5883 17.6655 15.6762 17.7776 15.7873C17.8897 15.8983 17.9784 16.0303 18.0387 16.1755C18.099 16.3207 18.1297 16.4763 18.1289 16.6334Z" fill="#EF8BB6"/>
<path d="M33.8475 16.6334C33.8475 16.8695 33.7768 17.1004 33.6444 17.2968C33.5119 17.4932 33.3237 17.6462 33.1035 17.7366C32.8833 17.827 32.641 17.8506 32.4072 17.8046C32.1734 17.7585 31.9587 17.6448 31.7901 17.4778C31.6216 17.3107 31.5068 17.098 31.4603 16.8663C31.4138 16.6347 31.4377 16.3946 31.5289 16.1764C31.6201 15.9582 31.7746 15.7717 31.9727 15.6404C32.1709 15.5092 32.4039 15.4392 32.6423 15.4392C32.8008 15.4384 32.9578 15.4688 33.1044 15.5286C33.2509 15.5883 33.3841 15.6762 33.4962 15.7873C33.6082 15.8983 33.697 16.0303 33.7573 16.1755C33.8176 16.3207 33.8482 16.4763 33.8475 16.6334Z" fill="#EF8BB6"/>
<path d="M48.3609 17.8275C49.0265 17.8275 49.566 17.2929 49.566 16.6334C49.566 15.9738 49.0265 15.4392 48.3609 15.4392C47.6953 15.4392 47.1557 15.9738 47.1557 16.6334C47.1557 17.2929 47.6953 17.8275 48.3609 17.8275Z" fill="#EF8BB6"/>
<path d="M2.41033 32.0725C2.41033 32.3087 2.33965 32.5396 2.20723 32.736C2.0748 32.9324 1.88658 33.0854 1.66636 33.1758C1.44615 33.2662 1.20383 33.2898 0.97005 33.2438C0.736271 33.1977 0.521531 33.0839 0.352986 32.9169C0.18444 32.7499 0.0696591 32.5372 0.0231575 32.3055C-0.0233441 32.0739 0.000522184 31.8338 0.0917384 31.6156C0.182955 31.3973 0.337424 31.2108 0.535612 31.0796C0.733801 30.9484 0.966807 30.8784 1.20517 30.8784C1.36364 30.8776 1.5207 30.908 1.66726 30.9678C1.81382 31.0275 1.94697 31.1154 2.05903 31.2265C2.1711 31.3375 2.25984 31.4694 2.32014 31.6147C2.38043 31.7599 2.41109 31.9155 2.41033 32.0725Z" fill="#EF8BB6"/>
<path d="M18.1289 32.0725C18.1289 32.3087 18.0582 32.5396 17.9258 32.736C17.7934 32.9324 17.6051 33.0854 17.3849 33.1758C17.1647 33.2662 16.9224 33.2898 16.6886 33.2438C16.4548 33.1977 16.2401 33.0839 16.0715 32.9169C15.903 32.7499 15.7882 32.5372 15.7417 32.3055C15.6952 32.0739 15.7191 31.8338 15.8103 31.6156C15.9015 31.3973 16.056 31.2108 16.2542 31.0796C16.4524 30.9484 16.6854 30.8784 16.9237 30.8784C17.0822 30.8776 17.2393 30.908 17.3858 30.9678C17.5324 31.0275 17.6655 31.1154 17.7776 31.2265C17.8897 31.3375 17.9784 31.4694 18.0387 31.6147C18.099 31.7599 18.1297 31.9155 18.1289 32.0725Z" fill="#EF8BB6"/>
<path d="M33.8475 32.0725C33.8475 32.3087 33.7768 32.5396 33.6444 32.736C33.5119 32.9324 33.3237 33.0854 33.1035 33.1758C32.8833 33.2662 32.641 33.2898 32.4072 33.2438C32.1734 33.1977 31.9587 33.0839 31.7901 32.9169C31.6216 32.7499 31.5068 32.5372 31.4603 32.3055C31.4138 32.0739 31.4377 31.8338 31.5289 31.6156C31.6201 31.3973 31.7746 31.2108 31.9727 31.0796C32.1709 30.9484 32.4039 30.8784 32.6423 30.8784C32.8008 30.8776 32.9578 30.908 33.1044 30.9678C33.2509 31.0275 33.3841 31.1154 33.4962 31.2265C33.6082 31.3375 33.697 31.4694 33.7573 31.6147C33.8176 31.7599 33.8482 31.9155 33.8475 32.0725Z" fill="#EF8BB6"/>
<path d="M49.566 32.0725C49.566 32.3087 49.4953 32.5396 49.3629 32.736C49.2305 32.9324 49.0423 33.0854 48.8221 33.1758C48.6018 33.2662 48.3595 33.2898 48.1257 33.2438C47.892 33.1977 47.6772 33.0839 47.5087 32.9169C47.3401 32.7499 47.2253 32.5372 47.1788 32.3055C47.1323 32.0739 47.1562 31.8338 47.2474 31.6156C47.3386 31.3973 47.4931 31.2108 47.6913 31.0796C47.8895 30.9484 48.1225 30.8784 48.3609 30.8784C48.5193 30.8776 48.6764 30.908 48.8229 30.9678C48.9695 31.0275 49.1027 31.1154 49.2147 31.2265C49.3268 31.3375 49.4155 31.4694 49.4758 31.6147C49.5361 31.7599 49.5668 31.9155 49.566 32.0725Z" fill="#EF8BB6"/>
<path d="M2.41033 47.54C2.41033 47.7762 2.33965 48.0071 2.20723 48.2035C2.0748 48.3998 1.88658 48.5529 1.66636 48.6433C1.44615 48.7337 1.20383 48.7573 0.97005 48.7112C0.736271 48.6652 0.521531 48.5514 0.352986 48.3844C0.18444 48.2174 0.0696591 48.0046 0.0231575 47.773C-0.0233441 47.5413 0.000522184 47.3012 0.0917384 47.083C0.182955 46.8648 0.337424 46.6783 0.535612 46.5471C0.733801 46.4159 0.966807 46.3459 1.20517 46.3459C1.36364 46.3451 1.5207 46.3755 1.66726 46.4352C1.81382 46.495 1.94697 46.5829 2.05903 46.6939C2.1711 46.805 2.25984 46.9369 2.32014 47.0821C2.38043 47.2274 2.41109 47.383 2.41033 47.54Z" fill="#EF8BB6"/>
<path d="M18.1289 47.54C18.1289 47.7762 18.0582 48.0071 17.9258 48.2035C17.7934 48.3998 17.6051 48.5529 17.3849 48.6433C17.1647 48.7337 16.9224 48.7573 16.6886 48.7112C16.4548 48.6652 16.2401 48.5514 16.0715 48.3844C15.903 48.2174 15.7882 48.0046 15.7417 47.773C15.6952 47.5413 15.7191 47.3012 15.8103 47.083C15.9015 46.8648 16.056 46.6783 16.2542 46.5471C16.4524 46.4159 16.6854 46.3459 16.9237 46.3459C17.0822 46.3451 17.2393 46.3755 17.3858 46.4352C17.5324 46.495 17.6655 46.5829 17.7776 46.6939C17.8897 46.805 17.9784 46.9369 18.0387 47.0821C18.099 47.2274 18.1297 47.383 18.1289 47.54Z" fill="#EF8BB6"/>
<path d="M33.8475 47.54C33.8475 47.7762 33.7768 48.0071 33.6444 48.2035C33.5119 48.3998 33.3237 48.5529 33.1035 48.6433C32.8833 48.7337 32.641 48.7573 32.4072 48.7112C32.1734 48.6652 31.9587 48.5514 31.7901 48.3844C31.6216 48.2174 31.5068 48.0046 31.4603 47.773C31.4138 47.5413 31.4377 47.3012 31.5289 47.083C31.6201 46.8648 31.7746 46.6783 31.9727 46.5471C32.1709 46.4159 32.4039 46.3459 32.6423 46.3459C32.8008 46.3451 32.9578 46.3755 33.1044 46.4352C33.2509 46.495 33.3841 46.5829 33.4962 46.6939C33.6082 46.805 33.697 46.9369 33.7573 47.0821C33.8176 47.2274 33.8482 47.383 33.8475 47.54Z" fill="#EF8BB6"/>
<path d="M48.3609 48.7059C49.0265 48.7059 49.566 48.1712 49.566 47.5117C49.566 46.8522 49.0265 46.3176 48.3609 46.3176C47.6953 46.3176 47.1557 46.8522 47.1557 47.5117C47.1557 48.1712 47.6953 48.7059 48.3609 48.7059Z" fill="#EF8BB6"/>
<path d="M63.8443 1.19419C63.8443 1.43037 63.7736 1.66125 63.6412 1.85763C63.5088 2.054 63.3205 2.20706 63.1003 2.29745C62.8801 2.38783 62.6378 2.41148 62.404 2.3654C62.1702 2.31932 61.9555 2.20559 61.7869 2.03858C61.6184 1.87158 61.5036 1.6588 61.4571 1.42716C61.4106 1.19551 61.4345 0.955406 61.5257 0.737202C61.6169 0.518997 61.7714 0.332495 61.9696 0.201279C62.1678 0.0700633 62.4008 2.70817e-05 62.6391 2.70817e-05C62.7976 -0.000722473 62.9547 0.0296537 63.1012 0.0894004C63.2478 0.149147 63.3809 0.23708 63.493 0.348117C63.6051 0.459155 63.6938 0.591096 63.7541 0.736316C63.8144 0.881537 63.8451 1.03716 63.8443 1.19419Z" fill="#EF8BB6"/>
<path d="M79.5629 1.19417C79.5629 1.43036 79.4922 1.66123 79.3597 1.85761C79.2273 2.05399 79.0391 2.20705 78.8189 2.29743C78.5987 2.38782 78.3564 2.41146 78.1226 2.36539C77.8888 2.31931 77.6741 2.20558 77.5055 2.03857C77.337 1.87157 77.2222 1.65879 77.1757 1.42714C77.1292 1.1955 77.153 0.955392 77.2443 0.737188C77.3355 0.518984 77.4899 0.332482 77.6881 0.201266C77.8863 0.0700498 78.1193 1.35409e-05 78.3577 1.35409e-05C78.5162 -0.000736014 78.6732 0.0296402 78.8198 0.0893868C78.9663 0.149133 79.0995 0.237066 79.2116 0.348104C79.3236 0.459141 79.4124 0.591082 79.4727 0.736303C79.533 0.881523 79.5636 1.03714 79.5629 1.19417Z" fill="#EF8BB6"/>
<path d="M95.2814 1.19417C95.2814 1.43036 95.2107 1.66123 95.0783 1.85761C94.9459 2.05399 94.7577 2.20705 94.5375 2.29743C94.3172 2.38782 94.0749 2.41146 93.8411 2.36539C93.6074 2.31931 93.3926 2.20558 93.2241 2.03857C93.0555 1.87157 92.9408 1.65879 92.8943 1.42714C92.8478 1.1955 92.8716 0.955392 92.9628 0.737188C93.054 0.518984 93.2085 0.332482 93.4067 0.201266C93.6049 0.0700498 93.8379 1.35409e-05 94.0763 1.35409e-05C94.2347 -0.000736014 94.3918 0.0296402 94.5384 0.0893868C94.6849 0.149133 94.8181 0.237066 94.9301 0.348104C95.0422 0.459141 95.1309 0.591082 95.1912 0.736303C95.2515 0.881523 95.2822 1.03714 95.2814 1.19417Z" fill="#EF8BB6"/>
<path d="M109.795 2.38833C110.46 2.38833 111 1.85369 111 1.19417C111 0.534657 110.46 1.35409e-05 109.795 1.35409e-05C109.129 1.35409e-05 108.59 0.534657 108.59 1.19417C108.59 1.85369 109.129 2.38833 109.795 2.38833Z" fill="#EF8BB6"/>
<path d="M63.8443 16.6334C63.8443 16.8695 63.7736 17.1004 63.6412 17.2968C63.5088 17.4932 63.3205 17.6462 63.1003 17.7366C62.8801 17.827 62.6378 17.8506 62.404 17.8046C62.1702 17.7585 61.9555 17.6448 61.7869 17.4778C61.6184 17.3107 61.5036 17.098 61.4571 16.8663C61.4106 16.6347 61.4345 16.3946 61.5257 16.1764C61.6169 15.9582 61.7714 15.7717 61.9696 15.6404C62.1678 15.5092 62.4008 15.4392 62.6391 15.4392C62.7976 15.4384 62.9547 15.4688 63.1012 15.5286C63.2478 15.5883 63.3809 15.6762 63.493 15.7873C63.6051 15.8983 63.6938 16.0303 63.7541 16.1755C63.8144 16.3207 63.8451 16.4763 63.8443 16.6334Z" fill="#EF8BB6"/>
<path d="M79.5629 16.6334C79.5629 16.8695 79.4922 17.1004 79.3597 17.2968C79.2273 17.4932 79.0391 17.6462 78.8189 17.7366C78.5987 17.827 78.3564 17.8506 78.1226 17.8046C77.8888 17.7585 77.6741 17.6448 77.5055 17.4778C77.337 17.3107 77.2222 17.098 77.1757 16.8663C77.1292 16.6347 77.153 16.3946 77.2443 16.1764C77.3355 15.9582 77.4899 15.7717 77.6881 15.6404C77.8863 15.5092 78.1193 15.4392 78.3577 15.4392C78.5162 15.4384 78.6732 15.4688 78.8198 15.5286C78.9663 15.5883 79.0995 15.6762 79.2116 15.7873C79.3236 15.8983 79.4124 16.0303 79.4727 16.1755C79.533 16.3207 79.5636 16.4763 79.5629 16.6334Z" fill="#EF8BB6"/>
<path d="M95.2814 16.6334C95.2814 16.8695 95.2107 17.1004 95.0783 17.2968C94.9459 17.4932 94.7577 17.6462 94.5375 17.7366C94.3172 17.827 94.0749 17.8506 93.8411 17.8046C93.6074 17.7585 93.3926 17.6448 93.2241 17.4778C93.0555 17.3107 92.9408 17.098 92.8943 16.8663C92.8478 16.6347 92.8716 16.3946 92.9628 16.1764C93.054 15.9582 93.2085 15.7717 93.4067 15.6404C93.6049 15.5092 93.8379 15.4392 94.0763 15.4392C94.2347 15.4384 94.3918 15.4688 94.5384 15.5286C94.6849 15.5883 94.8181 15.6762 94.9301 15.7873C95.0422 15.8983 95.1309 16.0303 95.1912 16.1755C95.2515 16.3207 95.2822 16.4763 95.2814 16.6334Z" fill="#EF8BB6"/>
<path d="M109.795 17.8275C110.46 17.8275 111 17.2929 111 16.6334C111 15.9738 110.46 15.4392 109.795 15.4392C109.129 15.4392 108.59 15.9738 108.59 16.6334C108.59 17.2929 109.129 17.8275 109.795 17.8275Z" fill="#EF8BB6"/>
<path d="M63.8443 32.0725C63.8443 32.3087 63.7736 32.5396 63.6412 32.736C63.5088 32.9324 63.3205 33.0854 63.1003 33.1758C62.8801 33.2662 62.6378 33.2898 62.404 33.2438C62.1702 33.1977 61.9555 33.0839 61.7869 32.9169C61.6184 32.7499 61.5036 32.5372 61.4571 32.3055C61.4106 32.0739 61.4345 31.8338 61.5257 31.6156C61.6169 31.3973 61.7714 31.2108 61.9696 31.0796C62.1678 30.9484 62.4008 30.8784 62.6391 30.8784C62.7976 30.8776 62.9547 30.908 63.1012 30.9678C63.2478 31.0275 63.3809 31.1154 63.493 31.2265C63.6051 31.3375 63.6938 31.4694 63.7541 31.6147C63.8144 31.7599 63.8451 31.9155 63.8443 32.0725Z" fill="#EF8BB6"/>
<path d="M79.5629 32.0725C79.5629 32.3087 79.4922 32.5396 79.3597 32.736C79.2273 32.9324 79.0391 33.0854 78.8189 33.1758C78.5987 33.2662 78.3564 33.2898 78.1226 33.2438C77.8888 33.1977 77.6741 33.0839 77.5055 32.9169C77.337 32.7499 77.2222 32.5372 77.1757 32.3055C77.1292 32.0739 77.153 31.8338 77.2443 31.6156C77.3355 31.3973 77.4899 31.2108 77.6881 31.0796C77.8863 30.9484 78.1193 30.8784 78.3577 30.8784C78.5162 30.8776 78.6732 30.908 78.8198 30.9678C78.9663 31.0275 79.0995 31.1154 79.2116 31.2265C79.3236 31.3375 79.4124 31.4694 79.4727 31.6147C79.533 31.7599 79.5636 31.9155 79.5629 32.0725Z" fill="#EF8BB6"/>
<path d="M95.2814 32.0725C95.2814 32.3087 95.2107 32.5396 95.0783 32.736C94.9459 32.9324 94.7577 33.0854 94.5375 33.1758C94.3172 33.2662 94.0749 33.2898 93.8411 33.2438C93.6074 33.1977 93.3926 33.0839 93.2241 32.9169C93.0555 32.7499 92.9408 32.5372 92.8943 32.3055C92.8478 32.0739 92.8716 31.8338 92.9628 31.6156C93.054 31.3973 93.2085 31.2108 93.4067 31.0796C93.6049 30.9484 93.8379 30.8784 94.0763 30.8784C94.2347 30.8776 94.3918 30.908 94.5384 30.9678C94.6849 31.0275 94.8181 31.1154 94.9301 31.2265C95.0422 31.3375 95.1309 31.4694 95.1912 31.6147C95.2515 31.7599 95.2822 31.9155 95.2814 32.0725Z" fill="#EF8BB6"/>
<path d="M111 32.0725C111 32.3087 110.929 32.5396 110.797 32.736C110.664 32.9324 110.476 33.0854 110.256 33.1758C110.036 33.2662 109.793 33.2898 109.56 33.2438C109.326 33.1977 109.111 33.0839 108.943 32.9169C108.774 32.7499 108.659 32.5372 108.613 32.3055C108.566 32.0739 108.59 31.8338 108.681 31.6156C108.773 31.3973 108.927 31.2108 109.125 31.0796C109.323 30.9484 109.556 30.8784 109.795 30.8784C109.953 30.8776 110.11 30.908 110.257 30.9678C110.403 31.0275 110.537 31.1154 110.649 31.2265C110.761 31.3375 110.849 31.4694 110.91 31.6147C110.97 31.7599 111.001 31.9155 111 32.0725Z" fill="#EF8BB6"/>
<path d="M63.8443 47.54C63.8443 47.7762 63.7736 48.0071 63.6412 48.2035C63.5088 48.3998 63.3205 48.5529 63.1003 48.6433C62.8801 48.7337 62.6378 48.7573 62.404 48.7112C62.1702 48.6652 61.9555 48.5514 61.7869 48.3844C61.6184 48.2174 61.5036 48.0046 61.4571 47.773C61.4106 47.5413 61.4345 47.3012 61.5257 47.083C61.6169 46.8648 61.7714 46.6783 61.9696 46.5471C62.1678 46.4159 62.4008 46.3459 62.6391 46.3459C62.7976 46.3451 62.9547 46.3755 63.1012 46.4352C63.2478 46.495 63.3809 46.5829 63.493 46.6939C63.6051 46.805 63.6938 46.9369 63.7541 47.0821C63.8144 47.2274 63.8451 47.383 63.8443 47.54Z" fill="#EF8BB6"/>
<path d="M79.5629 47.54C79.5629 47.7762 79.4922 48.0071 79.3597 48.2035C79.2273 48.3998 79.0391 48.5529 78.8189 48.6433C78.5987 48.7337 78.3564 48.7573 78.1226 48.7112C77.8888 48.6652 77.6741 48.5514 77.5055 48.3844C77.337 48.2174 77.2222 48.0046 77.1757 47.773C77.1292 47.5413 77.153 47.3012 77.2443 47.083C77.3355 46.8648 77.4899 46.6783 77.6881 46.5471C77.8863 46.4159 78.1193 46.3459 78.3577 46.3459C78.5162 46.3451 78.6732 46.3755 78.8198 46.4352C78.9663 46.495 79.0995 46.5829 79.2116 46.6939C79.3236 46.805 79.4124 46.9369 79.4727 47.0821C79.533 47.2274 79.5636 47.383 79.5629 47.54Z" fill="#EF8BB6"/>
<path d="M95.2814 47.54C95.2814 47.7762 95.2107 48.0071 95.0783 48.2035C94.9459 48.3998 94.7577 48.5529 94.5375 48.6433C94.3172 48.7337 94.0749 48.7573 93.8411 48.7112C93.6074 48.6652 93.3926 48.5514 93.2241 48.3844C93.0555 48.2174 92.9408 48.0046 92.8943 47.773C92.8478 47.5413 92.8716 47.3012 92.9628 47.083C93.054 46.8648 93.2085 46.6783 93.4067 46.5471C93.6049 46.4159 93.8379 46.3459 94.0763 46.3459C94.2347 46.3451 94.3918 46.3755 94.5384 46.4352C94.6849 46.495 94.8181 46.5829 94.9301 46.6939C95.0422 46.805 95.1309 46.9369 95.1912 47.0821C95.2515 47.2274 95.2822 47.383 95.2814 47.54Z" fill="#EF8BB6"/>
<path d="M109.795 48.7059C110.46 48.7059 111 48.1712 111 47.5117C111 46.8522 110.46 46.3176 109.795 46.3176C109.129 46.3176 108.59 46.8522 108.59 47.5117C108.59 48.1712 109.129 48.7059 109.795 48.7059Z" fill="#EF8BB6"/>
<path d="M2.41033 62.46C2.41033 62.6962 2.33965 62.9271 2.20723 63.1234C2.0748 63.3198 1.88658 63.4729 1.66636 63.5633C1.44615 63.6536 1.20383 63.6773 0.970051 63.6312C0.736272 63.5851 0.521532 63.4714 0.352986 63.3044C0.184441 63.1374 0.0696596 62.9246 0.023158 62.693C-0.0233436 62.4613 0.000522736 62.2212 0.0917389 62.003C0.182955 61.7848 0.337424 61.5983 0.535613 61.4671C0.733801 61.3359 0.966808 61.2658 1.20517 61.2658C1.36364 61.2651 1.5207 61.2955 1.66726 61.3552C1.81382 61.415 1.94697 61.5029 2.05903 61.6139C2.1711 61.725 2.25984 61.8569 2.32014 62.0021C2.38043 62.1474 2.41109 62.303 2.41033 62.46Z" fill="#EF8BB6"/>
<path d="M18.1289 62.46C18.1289 62.6962 18.0582 62.9271 17.9258 63.1234C17.7934 63.3198 17.6051 63.4729 17.3849 63.5633C17.1647 63.6536 16.9224 63.6773 16.6886 63.6312C16.4548 63.5851 16.2401 63.4714 16.0715 63.3044C15.903 63.1374 15.7882 62.9246 15.7417 62.693C15.6952 62.4613 15.7191 62.2212 15.8103 62.003C15.9015 61.7848 16.056 61.5983 16.2542 61.4671C16.4524 61.3359 16.6854 61.2658 16.9237 61.2658C17.0822 61.2651 17.2393 61.2955 17.3858 61.3552C17.5324 61.415 17.6655 61.5029 17.7776 61.6139C17.8897 61.725 17.9784 61.8569 18.0387 62.0021C18.099 62.1473 18.1297 62.303 18.1289 62.46Z" fill="#EF8BB6"/>
<path d="M33.8475 62.46C33.8475 62.6962 33.7768 62.9271 33.6444 63.1234C33.5119 63.3198 33.3237 63.4729 33.1035 63.5633C32.8833 63.6536 32.641 63.6773 32.4072 63.6312C32.1734 63.5851 31.9587 63.4714 31.7901 63.3044C31.6216 63.1374 31.5068 62.9246 31.4603 62.693C31.4138 62.4613 31.4377 62.2212 31.5289 62.003C31.6201 61.7848 31.7746 61.5983 31.9727 61.4671C32.1709 61.3359 32.4039 61.2658 32.6423 61.2658C32.8008 61.2651 32.9578 61.2955 33.1044 61.3552C33.2509 61.415 33.3841 61.5029 33.4962 61.6139C33.6082 61.725 33.697 61.8569 33.7573 62.0021C33.8176 62.1473 33.8482 62.303 33.8475 62.46Z" fill="#EF8BB6"/>
<path d="M48.3609 63.6542C49.0265 63.6542 49.566 63.1195 49.566 62.46C49.566 61.8005 49.0265 61.2658 48.3609 61.2658C47.6953 61.2658 47.1557 61.8005 47.1557 62.46C47.1557 63.1195 47.6953 63.6542 48.3609 63.6542Z" fill="#EF8BB6"/>
<path d="M2.41033 77.8992C2.41033 78.1354 2.33965 78.3662 2.20723 78.5626C2.0748 78.759 1.88658 78.912 1.66636 79.0024C1.44615 79.0928 1.20383 79.1165 0.97005 79.0704C0.736271 79.0243 0.521531 78.9106 0.352986 78.7436C0.18444 78.5766 0.0696591 78.3638 0.0231575 78.1321C-0.0233441 77.9005 0.000522184 77.6604 0.0917384 77.4422C0.182955 77.224 0.337424 77.0375 0.535612 76.9063C0.733801 76.7751 0.966807 76.705 1.20517 76.705C1.36364 76.7043 1.5207 76.7346 1.66726 76.7944C1.81382 76.8541 1.94697 76.9421 2.05903 77.0531C2.1711 77.1641 2.25984 77.2961 2.32014 77.4413C2.38043 77.5865 2.41109 77.7421 2.41033 77.8992Z" fill="#EF8BB6"/>
<path d="M18.1289 77.8992C18.1289 78.1354 18.0582 78.3662 17.9258 78.5626C17.7934 78.759 17.6051 78.912 17.3849 79.0024C17.1647 79.0928 16.9224 79.1165 16.6886 79.0704C16.4548 79.0243 16.2401 78.9106 16.0715 78.7436C15.903 78.5766 15.7882 78.3638 15.7417 78.1321C15.6952 77.9005 15.7191 77.6604 15.8103 77.4422C15.9015 77.224 16.056 77.0375 16.2542 76.9063C16.4524 76.7751 16.6854 76.705 16.9237 76.705C17.0822 76.7043 17.2393 76.7346 17.3858 76.7944C17.5324 76.8541 17.6655 76.9421 17.7776 77.0531C17.8897 77.1641 17.9784 77.2961 18.0387 77.4413C18.099 77.5865 18.1297 77.7421 18.1289 77.8992Z" fill="#EF8BB6"/>
<path d="M33.8475 77.8992C33.8475 78.1354 33.7768 78.3662 33.6444 78.5626C33.5119 78.759 33.3237 78.912 33.1035 79.0024C32.8833 79.0928 32.641 79.1165 32.4072 79.0704C32.1734 79.0243 31.9587 78.9106 31.7901 78.7436C31.6216 78.5766 31.5068 78.3638 31.4603 78.1321C31.4138 77.9005 31.4377 77.6604 31.5289 77.4422C31.6201 77.224 31.7746 77.0375 31.9727 76.9063C32.1709 76.7751 32.4039 76.705 32.6423 76.705C32.8008 76.7043 32.9578 76.7346 33.1044 76.7944C33.2509 76.8541 33.3841 76.9421 33.4962 77.0531C33.6082 77.1641 33.697 77.2961 33.7573 77.4413C33.8176 77.5865 33.8482 77.7421 33.8475 77.8992Z" fill="#EF8BB6"/>
<path d="M48.3609 79.0933C49.0265 79.0933 49.566 78.5587 49.566 77.8992C49.566 77.2397 49.0265 76.705 48.3609 76.705C47.6953 76.705 47.1557 77.2397 47.1557 77.8992C47.1557 78.5587 47.6953 79.0933 48.3609 79.0933Z" fill="#EF8BB6"/>
<path d="M2.41033 93.3384C2.41033 93.5745 2.33965 93.8054 2.20723 94.0018C2.0748 94.1982 1.88658 94.3512 1.66636 94.4416C1.44615 94.532 1.20383 94.5557 0.97005 94.5096C0.736271 94.4635 0.521531 94.3498 0.352986 94.1828C0.18444 94.0157 0.0696591 93.803 0.0231575 93.5713C-0.0233441 93.3397 0.000522184 93.0996 0.0917384 92.8814C0.182955 92.6632 0.337424 92.4767 0.535612 92.3455C0.733801 92.2142 0.966807 92.1442 1.20517 92.1442C1.36364 92.1435 1.5207 92.1738 1.66726 92.2336C1.81382 92.2933 1.94697 92.3813 2.05903 92.4923C2.1711 92.6033 2.25984 92.7353 2.32014 92.8805C2.38043 93.0257 2.41109 93.1813 2.41033 93.3384Z" fill="#EF8BB6"/>
<path d="M18.1289 93.3384C18.1289 93.5745 18.0582 93.8054 17.9258 94.0018C17.7934 94.1982 17.6051 94.3512 17.3849 94.4416C17.1647 94.532 16.9224 94.5557 16.6886 94.5096C16.4548 94.4635 16.2401 94.3498 16.0715 94.1828C15.903 94.0157 15.7882 93.803 15.7417 93.5713C15.6952 93.3397 15.7191 93.0996 15.8103 92.8814C15.9015 92.6632 16.056 92.4767 16.2542 92.3455C16.4524 92.2142 16.6854 92.1442 16.9237 92.1442C17.0822 92.1435 17.2393 92.1738 17.3858 92.2336C17.5324 92.2933 17.6655 92.3813 17.7776 92.4923C17.8897 92.6033 17.9784 92.7353 18.0387 92.8805C18.099 93.0257 18.1297 93.1813 18.1289 93.3384Z" fill="#EF8BB6"/>
<path d="M33.8475 93.3384C33.8475 93.5745 33.7768 93.8054 33.6444 94.0018C33.5119 94.1982 33.3237 94.3512 33.1035 94.4416C32.8833 94.532 32.641 94.5557 32.4072 94.5096C32.1734 94.4635 31.9587 94.3498 31.7901 94.1828C31.6216 94.0157 31.5068 93.803 31.4603 93.5713C31.4138 93.3397 31.4377 93.0996 31.5289 92.8814C31.6201 92.6632 31.7746 92.4767 31.9727 92.3455C32.1709 92.2142 32.4039 92.1442 32.6423 92.1442C32.8008 92.1435 32.9578 92.1738 33.1044 92.2336C33.2509 92.2933 33.3841 92.3813 33.4962 92.4923C33.6082 92.6033 33.697 92.7353 33.7573 92.8805C33.8176 93.0257 33.8482 93.1813 33.8475 93.3384Z" fill="#EF8BB6"/>
<path d="M49.566 93.3384C49.566 93.5745 49.4953 93.8054 49.3629 94.0018C49.2305 94.1982 49.0423 94.3512 48.8221 94.4416C48.6018 94.532 48.3595 94.5557 48.1257 94.5096C47.892 94.4635 47.6772 94.3498 47.5087 94.1828C47.3401 94.0157 47.2253 93.803 47.1788 93.5713C47.1323 93.3397 47.1562 93.0996 47.2474 92.8814C47.3386 92.6632 47.4931 92.4767 47.6913 92.3455C47.8895 92.2142 48.1225 92.1442 48.3609 92.1442C48.5193 92.1435 48.6764 92.1738 48.8229 92.2336C48.9695 92.2933 49.1027 92.3813 49.2147 92.4923C49.3268 92.6033 49.4155 92.7353 49.4758 92.8805C49.5361 93.0257 49.5668 93.1813 49.566 93.3384Z" fill="#EF8BB6"/>
<path d="M2.41033 108.806C2.41033 109.042 2.33965 109.273 2.20723 109.469C2.0748 109.666 1.88658 109.819 1.66636 109.909C1.44615 109.999 1.20383 110.023 0.97005 109.977C0.736271 109.931 0.521531 109.817 0.352986 109.65C0.18444 109.483 0.0696591 109.27 0.0231575 109.039C-0.0233441 108.807 0.000522184 108.567 0.0917384 108.349C0.182955 108.131 0.337424 107.944 0.535612 107.813C0.733801 107.682 0.966807 107.612 1.20517 107.612C1.36364 107.611 1.5207 107.641 1.66726 107.701C1.81382 107.761 1.94697 107.849 2.05903 107.96C2.1711 108.071 2.25984 108.203 2.32014 108.348C2.38043 108.493 2.41109 108.649 2.41033 108.806Z" fill="#EF8BB6"/>
<path d="M18.1289 108.806C18.1289 109.042 18.0582 109.273 17.9258 109.469C17.7934 109.666 17.6051 109.819 17.3849 109.909C17.1647 109.999 16.9224 110.023 16.6886 109.977C16.4548 109.931 16.2401 109.817 16.0715 109.65C15.903 109.483 15.7882 109.27 15.7417 109.039C15.6952 108.807 15.7191 108.567 15.8103 108.349C15.9015 108.131 16.056 107.944 16.2542 107.813C16.4524 107.682 16.6854 107.612 16.9237 107.612C17.0822 107.611 17.2393 107.641 17.3858 107.701C17.5324 107.761 17.6655 107.849 17.7776 107.96C17.8897 108.071 17.9784 108.203 18.0387 108.348C18.099 108.493 18.1297 108.649 18.1289 108.806Z" fill="#EF8BB6"/>
<path d="M33.8475 108.806C33.8475 109.042 33.7768 109.273 33.6444 109.469C33.5119 109.666 33.3237 109.819 33.1035 109.909C32.8833 109.999 32.641 110.023 32.4072 109.977C32.1734 109.931 31.9587 109.817 31.7901 109.65C31.6216 109.483 31.5068 109.27 31.4603 109.039C31.4138 108.807 31.4377 108.567 31.5289 108.349C31.6201 108.131 31.7746 107.944 31.9727 107.813C32.1709 107.682 32.4039 107.612 32.6423 107.612C32.8008 107.611 32.9578 107.641 33.1044 107.701C33.2509 107.761 33.3841 107.849 33.4962 107.96C33.6082 108.071 33.697 108.203 33.7573 108.348C33.8176 108.493 33.8482 108.649 33.8475 108.806Z" fill="#EF8BB6"/>
<path d="M48.3609 109.972C49.0265 109.972 49.566 109.437 49.566 108.778C49.566 108.118 49.0265 107.583 48.3609 107.583C47.6953 107.583 47.1557 108.118 47.1557 108.778C47.1557 109.437 47.6953 109.972 48.3609 109.972Z" fill="#EF8BB6"/>
<path d="M63.8443 62.46C63.8443 62.6962 63.7736 62.9271 63.6412 63.1234C63.5088 63.3198 63.3205 63.4729 63.1003 63.5633C62.8801 63.6536 62.6378 63.6773 62.404 63.6312C62.1702 63.5851 61.9555 63.4714 61.7869 63.3044C61.6184 63.1374 61.5036 62.9246 61.4571 62.693C61.4106 62.4613 61.4345 62.2212 61.5257 62.003C61.6169 61.7848 61.7714 61.5983 61.9696 61.4671C62.1678 61.3359 62.4008 61.2658 62.6391 61.2658C62.7976 61.2651 62.9547 61.2955 63.1012 61.3552C63.2478 61.415 63.3809 61.5029 63.493 61.6139C63.6051 61.725 63.6938 61.8569 63.7541 62.0021C63.8144 62.1474 63.8451 62.303 63.8443 62.46Z" fill="#EF8BB6"/>
<path d="M79.5629 62.46C79.5629 62.6962 79.4922 62.9271 79.3597 63.1234C79.2273 63.3198 79.0391 63.4729 78.8189 63.5633C78.5987 63.6536 78.3564 63.6773 78.1226 63.6312C77.8888 63.5851 77.6741 63.4714 77.5055 63.3044C77.337 63.1374 77.2222 62.9246 77.1757 62.693C77.1292 62.4613 77.153 62.2212 77.2443 62.003C77.3355 61.7848 77.4899 61.5983 77.6881 61.4671C77.8863 61.3359 78.1193 61.2658 78.3577 61.2658C78.5162 61.2651 78.6732 61.2955 78.8198 61.3552C78.9663 61.415 79.0995 61.5029 79.2116 61.6139C79.3236 61.725 79.4124 61.8569 79.4727 62.0021C79.533 62.1473 79.5636 62.303 79.5629 62.46Z" fill="#EF8BB6"/>
<path d="M95.2814 62.46C95.2814 62.6962 95.2107 62.9271 95.0783 63.1234C94.9459 63.3198 94.7577 63.4729 94.5375 63.5633C94.3172 63.6536 94.0749 63.6773 93.8411 63.6312C93.6074 63.5851 93.3926 63.4714 93.2241 63.3044C93.0555 63.1374 92.9408 62.9246 92.8943 62.693C92.8478 62.4613 92.8716 62.2212 92.9628 62.003C93.054 61.7848 93.2085 61.5983 93.4067 61.4671C93.6049 61.3359 93.8379 61.2658 94.0763 61.2658C94.2347 61.2651 94.3918 61.2955 94.5384 61.3552C94.6849 61.415 94.8181 61.5029 94.9301 61.6139C95.0422 61.725 95.1309 61.8569 95.1912 62.0021C95.2515 62.1473 95.2822 62.303 95.2814 62.46Z" fill="#EF8BB6"/>
<path d="M109.795 63.6542C110.46 63.6542 111 63.1195 111 62.46C111 61.8005 110.46 61.2658 109.795 61.2658C109.129 61.2658 108.59 61.8005 108.59 62.46C108.59 63.1195 109.129 63.6542 109.795 63.6542Z" fill="#EF8BB6"/>
<path d="M63.8443 77.8992C63.8443 78.1354 63.7736 78.3662 63.6412 78.5626C63.5088 78.759 63.3205 78.912 63.1003 79.0024C62.8801 79.0928 62.6378 79.1165 62.404 79.0704C62.1702 79.0243 61.9555 78.9106 61.7869 78.7436C61.6184 78.5766 61.5036 78.3638 61.4571 78.1321C61.4106 77.9005 61.4345 77.6604 61.5257 77.4422C61.6169 77.224 61.7714 77.0375 61.9696 76.9063C62.1678 76.7751 62.4008 76.705 62.6391 76.705C62.7976 76.7043 62.9547 76.7346 63.1012 76.7944C63.2478 76.8541 63.3809 76.9421 63.493 77.0531C63.6051 77.1641 63.6938 77.2961 63.7541 77.4413C63.8144 77.5865 63.8451 77.7421 63.8443 77.8992Z" fill="#EF8BB6"/>
<path d="M79.5629 77.8992C79.5629 78.1354 79.4922 78.3662 79.3597 78.5626C79.2273 78.759 79.0391 78.912 78.8189 79.0024C78.5987 79.0928 78.3564 79.1165 78.1226 79.0704C77.8888 79.0243 77.6741 78.9106 77.5055 78.7436C77.337 78.5766 77.2222 78.3638 77.1757 78.1321C77.1292 77.9005 77.153 77.6604 77.2443 77.4422C77.3355 77.224 77.4899 77.0375 77.6881 76.9063C77.8863 76.7751 78.1193 76.705 78.3577 76.705C78.5162 76.7043 78.6732 76.7346 78.8198 76.7944C78.9663 76.8541 79.0995 76.9421 79.2116 77.0531C79.3236 77.1641 79.4124 77.2961 79.4727 77.4413C79.533 77.5865 79.5636 77.7421 79.5629 77.8992Z" fill="#EF8BB6"/>
<path d="M95.2814 77.8992C95.2814 78.1354 95.2107 78.3662 95.0783 78.5626C94.9459 78.759 94.7577 78.912 94.5375 79.0024C94.3172 79.0928 94.0749 79.1165 93.8411 79.0704C93.6074 79.0243 93.3926 78.9106 93.2241 78.7436C93.0555 78.5766 92.9408 78.3638 92.8943 78.1321C92.8478 77.9005 92.8716 77.6604 92.9628 77.4422C93.054 77.224 93.2085 77.0375 93.4067 76.9063C93.6049 76.7751 93.8379 76.705 94.0763 76.705C94.2347 76.7043 94.3918 76.7346 94.5384 76.7944C94.6849 76.8541 94.8181 76.9421 94.9301 77.0531C95.0422 77.1641 95.1309 77.2961 95.1912 77.4413C95.2515 77.5865 95.2822 77.7421 95.2814 77.8992Z" fill="#EF8BB6"/>
<path d="M109.795 79.0933C110.46 79.0933 111 78.5587 111 77.8992C111 77.2397 110.46 76.705 109.795 76.705C109.129 76.705 108.59 77.2397 108.59 77.8992C108.59 78.5587 109.129 79.0933 109.795 79.0933Z" fill="#EF8BB6"/>
<path d="M63.8443 93.3384C63.8443 93.5745 63.7736 93.8054 63.6412 94.0018C63.5088 94.1982 63.3205 94.3512 63.1003 94.4416C62.8801 94.532 62.6378 94.5557 62.404 94.5096C62.1702 94.4635 61.9555 94.3498 61.7869 94.1828C61.6184 94.0157 61.5036 93.803 61.4571 93.5713C61.4106 93.3397 61.4345 93.0996 61.5257 92.8814C61.6169 92.6632 61.7714 92.4767 61.9696 92.3455C62.1678 92.2142 62.4008 92.1442 62.6391 92.1442C62.7976 92.1435 62.9547 92.1738 63.1012 92.2336C63.2478 92.2933 63.3809 92.3813 63.493 92.4923C63.6051 92.6033 63.6938 92.7353 63.7541 92.8805C63.8144 93.0257 63.8451 93.1813 63.8443 93.3384Z" fill="#EF8BB6"/>
<path d="M79.5629 93.3384C79.5629 93.5745 79.4922 93.8054 79.3597 94.0018C79.2273 94.1982 79.0391 94.3512 78.8189 94.4416C78.5987 94.532 78.3564 94.5557 78.1226 94.5096C77.8888 94.4635 77.6741 94.3498 77.5055 94.1828C77.337 94.0157 77.2222 93.803 77.1757 93.5713C77.1292 93.3397 77.153 93.0996 77.2443 92.8814C77.3355 92.6632 77.4899 92.4767 77.6881 92.3455C77.8863 92.2142 78.1193 92.1442 78.3577 92.1442C78.5162 92.1435 78.6732 92.1738 78.8198 92.2336C78.9663 92.2933 79.0995 92.3813 79.2116 92.4923C79.3236 92.6033 79.4124 92.7353 79.4727 92.8805C79.533 93.0257 79.5636 93.1813 79.5629 93.3384Z" fill="#EF8BB6"/>
<path d="M95.2814 93.3384C95.2814 93.5745 95.2107 93.8054 95.0783 94.0018C94.9459 94.1982 94.7577 94.3512 94.5375 94.4416C94.3172 94.532 94.0749 94.5557 93.8411 94.5096C93.6074 94.4635 93.3926 94.3498 93.2241 94.1828C93.0555 94.0157 92.9408 93.803 92.8943 93.5713C92.8478 93.3397 92.8716 93.0996 92.9628 92.8814C93.054 92.6632 93.2085 92.4767 93.4067 92.3455C93.6049 92.2142 93.8379 92.1442 94.0763 92.1442C94.2347 92.1435 94.3918 92.1738 94.5384 92.2336C94.6849 92.2933 94.8181 92.3813 94.9301 92.4923C95.0422 92.6033 95.1309 92.7353 95.1912 92.8805C95.2515 93.0257 95.2822 93.1813 95.2814 93.3384Z" fill="#EF8BB6"/>
<path d="M111 93.3384C111 93.5745 110.929 93.8054 110.797 94.0018C110.664 94.1982 110.476 94.3512 110.256 94.4416C110.036 94.532 109.793 94.5557 109.56 94.5096C109.326 94.4635 109.111 94.3498 108.943 94.1828C108.774 94.0157 108.659 93.803 108.613 93.5713C108.566 93.3397 108.59 93.0996 108.681 92.8814C108.773 92.6632 108.927 92.4767 109.125 92.3455C109.323 92.2142 109.556 92.1442 109.795 92.1442C109.953 92.1435 110.11 92.1738 110.257 92.2336C110.403 92.2933 110.537 92.3813 110.649 92.4923C110.761 92.6033 110.849 92.7353 110.91 92.8805C110.97 93.0257 111.001 93.1813 111 93.3384Z" fill="#EF8BB6"/>
<path d="M63.8443 108.806C63.8443 109.042 63.7736 109.273 63.6412 109.469C63.5088 109.666 63.3205 109.819 63.1003 109.909C62.8801 109.999 62.6378 110.023 62.404 109.977C62.1702 109.931 61.9555 109.817 61.7869 109.65C61.6184 109.483 61.5036 109.27 61.4571 109.039C61.4106 108.807 61.4345 108.567 61.5257 108.349C61.6169 108.131 61.7714 107.944 61.9696 107.813C62.1678 107.682 62.4008 107.612 62.6391 107.612C62.7976 107.611 62.9547 107.641 63.1012 107.701C63.2478 107.761 63.3809 107.849 63.493 107.96C63.6051 108.071 63.6938 108.203 63.7541 108.348C63.8144 108.493 63.8451 108.649 63.8443 108.806Z" fill="#EF8BB6"/>
<path d="M79.5629 108.806C79.5629 109.042 79.4922 109.273 79.3597 109.469C79.2273 109.666 79.0391 109.819 78.8189 109.909C78.5987 109.999 78.3564 110.023 78.1226 109.977C77.8888 109.931 77.6741 109.817 77.5055 109.65C77.337 109.483 77.2222 109.27 77.1757 109.039C77.1292 108.807 77.153 108.567 77.2443 108.349C77.3355 108.131 77.4899 107.944 77.6881 107.813C77.8863 107.682 78.1193 107.612 78.3577 107.612C78.5162 107.611 78.6732 107.641 78.8198 107.701C78.9663 107.761 79.0995 107.849 79.2116 107.96C79.3236 108.071 79.4124 108.203 79.4727 108.348C79.533 108.493 79.5636 108.649 79.5629 108.806Z" fill="#EF8BB6"/>
<path d="M95.2814 108.806C95.2814 109.042 95.2107 109.273 95.0783 109.469C94.9459 109.666 94.7577 109.819 94.5375 109.909C94.3172 109.999 94.0749 110.023 93.8411 109.977C93.6074 109.931 93.3926 109.817 93.2241 109.65C93.0555 109.483 92.9408 109.27 92.8943 109.039C92.8478 108.807 92.8716 108.567 92.9628 108.349C93.054 108.131 93.2085 107.944 93.4067 107.813C93.6049 107.682 93.8379 107.612 94.0763 107.612C94.2347 107.611 94.3918 107.641 94.5384 107.701C94.6849 107.761 94.8181 107.849 94.9301 107.96C95.0422 108.071 95.1309 108.203 95.1912 108.348C95.2515 108.493 95.2822 108.649 95.2814 108.806Z" fill="#EF8BB6"/>
<path d="M109.795 109.972C110.46 109.972 111 109.437 111 108.778C111 108.118 110.46 107.583 109.795 107.583C109.129 107.583 108.59 108.118 108.59 108.778C108.59 109.437 109.129 109.972 109.795 109.972Z" fill="#EF8BB6"/>
</svg>
