<svg width="80" height="86" viewBox="0 0 80 86" fill="none" xmlns="http://www.w3.org/2000/svg">
<path d="M77.7392 0H2.26052C1.50263 0 0.888184 0.614443 0.888184 1.37234V23.3298C0.888184 24.0877 1.50263 24.7021 2.26052 24.7021H77.7392C78.4971 24.7021 79.1116 24.0877 79.1116 23.3298V1.37234C79.1116 0.614443 78.4971 0 77.7392 0ZM3.63286 2.74468H54.4095V21.9574H3.63286V2.74468ZM76.3669 21.9574H57.1541V2.74468H76.3669V21.9574Z" fill="#515167"/>
<path d="M24.218 67.702H48.2339C48.9918 67.702 49.6063 67.0875 49.6063 66.3296C49.6063 65.5717 48.9918 64.9573 48.2339 64.9573H24.218C23.4601 64.9573 22.8456 65.5717 22.8456 66.3296C22.8456 67.0875 23.4601 67.702 24.218 67.702Z" fill="#515167"/>
<path d="M72.2499 57.6384H24.218C23.4601 57.6384 22.8456 58.2529 22.8456 59.0108C22.8456 59.7687 23.4601 60.3831 24.218 60.3831H72.2499C73.0078 60.3831 73.6222 59.7687 73.6222 59.0108C73.6222 58.2529 73.0078 57.6384 72.2499 57.6384Z" fill="#515167"/>
<path d="M24.218 45.7447H48.2339C48.9918 45.7447 49.6063 45.1302 49.6063 44.3723C49.6063 43.6144 48.9918 43 48.2339 43H24.218C23.4601 43 22.8456 43.6144 22.8456 44.3723C22.8456 45.1302 23.4601 45.7447 24.218 45.7447Z" fill="#515167"/>
<path d="M24.218 38.4253H72.2499C73.0078 38.4253 73.6222 37.8109 73.6222 37.053C73.6222 36.2951 73.0078 35.6807 72.2499 35.6807H24.218C23.4601 35.6807 22.8456 36.2951 22.8456 37.053C22.8456 37.8109 23.4601 38.4253 24.218 38.4253Z" fill="#515167"/>
<path d="M77.7392 28.3616H2.26052C1.50263 28.3616 0.888184 28.976 0.888184 29.7339V51.6914C0.888184 52.4493 1.50263 53.0637 2.26052 53.0637H77.7392C78.4971 53.0637 79.1116 52.4493 79.1116 51.6914V29.7339C79.1116 28.976 78.4971 28.3616 77.7392 28.3616ZM76.3669 50.319H3.63286V31.1063H76.3669V50.319Z" fill="#515167"/>
<path d="M61.5407 15.0593C62.5996 16.1182 64.0072 16.7013 65.5047 16.7013C66.5333 16.7013 67.5193 16.4261 68.3793 15.9107L71.2795 18.8109C71.5474 19.0788 71.8988 19.2129 72.2499 19.2129C72.601 19.2129 72.9523 19.079 73.2202 18.8109C73.7562 18.275 73.7562 17.406 73.2202 16.8702L70.32 13.97C70.8355 13.1102 71.1107 12.1239 71.1107 11.0954C71.1107 9.59792 70.5275 8.19027 69.4686 7.13137C68.4099 6.07266 67.0021 5.4895 65.5047 5.4895C64.0072 5.4895 62.5996 6.07266 61.5407 7.13137C59.355 9.31705 59.355 12.8736 61.5407 15.0593ZM63.4815 9.07223C64.0221 8.53189 64.7404 8.23418 65.5047 8.23418C66.269 8.23418 66.9876 8.53171 67.5279 9.07223C68.0685 9.61275 68.366 10.3311 68.366 11.0954C68.366 11.8597 68.0685 12.5781 67.5279 13.1186C66.9874 13.6591 66.269 13.9567 65.5047 13.9567C64.7404 13.9567 64.0219 13.6591 63.4815 13.1186C62.3659 12.003 62.3659 10.1878 63.4815 9.07223Z" fill="#515167"/>
<path d="M18.7287 55.8086H7.74997C6.99207 55.8086 6.37762 56.423 6.37762 57.1809V68.1597C6.37762 68.9176 6.99207 69.532 7.74997 69.532H18.7287C19.4866 69.532 20.101 68.9176 20.101 68.1597V57.1809C20.101 56.423 19.4866 55.8086 18.7287 55.8086ZM17.3563 66.7873H9.12231V58.5533H17.3563V66.7873Z" fill="#515167"/>
<path d="M48.2339 81.4255H24.218C23.4601 81.4255 22.8456 82.04 22.8456 82.7979C22.8456 83.5558 23.4601 84.1702 24.218 84.1702H48.2339C48.9918 84.1702 49.6063 83.5558 49.6063 82.7979C49.6063 82.04 48.9918 81.4255 48.2339 81.4255Z" fill="#515167"/>
<path d="M72.2499 74.1062H24.218C23.4601 74.1062 22.8456 74.7206 22.8456 75.4785C22.8456 76.2364 23.4601 76.8509 24.218 76.8509H72.2499C73.0078 76.8509 73.6222 76.2364 73.6222 75.4785C73.6222 74.7206 73.0078 74.1062 72.2499 74.1062Z" fill="#515167"/>
<path d="M18.7287 72.2764H7.74997C6.99207 72.2764 6.37762 72.8908 6.37762 73.6487V84.6274C6.37762 85.3853 6.99207 85.9998 7.74997 85.9998H18.7287C19.4866 85.9998 20.101 85.3853 20.101 84.6274V73.6487C20.101 72.8908 19.4866 72.2764 18.7287 72.2764ZM17.3563 83.2551H9.12231V75.021H17.3563V83.2551Z" fill="#515167"/>
<path d="M7.74997 47.5745H18.7287C19.4866 47.5745 20.101 46.96 20.101 46.2021V35.2234C20.101 34.4655 19.4866 33.8511 18.7287 33.8511H7.74997C6.99207 33.8511 6.37762 34.4655 6.37762 35.2234V46.2021C6.37762 46.96 6.99207 47.5745 7.74997 47.5745ZM9.12231 36.5958H17.3563V44.8298H9.12231V36.5958Z" fill="#515167"/>
</svg>
