<svg width="93" height="93" viewBox="0 0 93 93" fill="none" xmlns="http://www.w3.org/2000/svg">
<g clip-path="url(#clip0_6_386)">
<rect width="93" height="93" rx="46.5" fill="#623DFF"/>
<g clip-path="url(#clip1_6_386)">
<path d="M91.6714 2.65723H1.32858V91.6715H91.6714V2.65723Z" fill="url(#paint0_linear_6_386)"/>
<path d="M38.8822 69.233C33.2062 69.233 27.7626 66.9782 23.7491 62.9647C19.7356 58.9511 17.4808 53.5076 17.4808 47.8316C17.4808 42.1556 19.7356 36.7121 23.7491 32.6985C27.7626 28.685 33.2062 26.4302 38.8822 26.4302C39.708 26.4302 40.5 26.7582 41.084 27.3422C41.668 27.9262 41.996 28.7182 41.996 29.544C41.996 30.3699 41.668 31.1619 41.084 31.7458C40.5 32.3298 39.708 32.6579 38.8822 32.6579C36.3534 32.6581 33.8646 33.2897 31.6417 34.4954C29.4188 35.7011 27.5322 37.4427 26.1528 39.5622C24.7735 41.6818 23.9452 44.1121 23.743 46.6329C23.5408 49.1536 23.9712 51.6849 24.9951 53.9972C26.019 56.3094 27.604 58.3295 29.6063 59.874C31.6086 61.4186 33.9649 62.4388 36.4614 62.8421C38.9578 63.2454 41.5155 63.019 43.9023 62.1835C46.2891 61.3479 48.4295 59.9297 50.1294 58.0574C50.3723 57.7928 50.6089 57.5125 50.83 57.2292C51.3576 56.6381 52.0907 56.2703 52.8799 56.2008C53.6692 56.1313 54.4552 56.3653 55.078 56.8551C55.7008 57.3449 56.1134 58.0537 56.2319 58.8371C56.3503 59.6205 56.1657 60.4196 55.7156 61.0716C55.4042 61.4702 55.0679 61.8626 54.7285 62.2362C52.719 64.4403 50.2718 66.201 47.5432 67.4058C44.8147 68.6105 41.8649 69.2329 38.8822 69.233Z" fill="white"/>
<g filter="url(#filter0_d_6_386)">
<path d="M78.1698 66.0944C78.0965 66.9472 77.702 67.7403 77.0661 68.3132C76.4302 68.8861 75.6003 69.196 74.7446 69.1803H54.0562C53.6365 69.182 53.2205 69.1005 52.8325 68.9405C52.7929 68.9292 52.7544 68.9146 52.7173 68.8969C52.109 68.6518 51.5769 68.2492 51.1758 67.7304C50.7747 67.2116 50.5189 66.5953 50.4348 65.945C50.4125 65.785 50.401 65.6238 50.4006 65.4623V29.8431C50.7649 28.0807 52.0914 26.5362 53.8507 26.4179C54.2993 26.3907 54.7487 26.4556 55.1713 26.6085C55.5938 26.7615 55.9806 26.9993 56.3079 27.3073C56.6351 27.6153 56.8959 27.987 57.0742 28.3995C57.2524 28.8121 57.3444 29.2567 57.3444 29.7061V58.889C57.3444 59.8718 57.7348 60.8143 58.4297 61.5092C59.1247 62.2041 60.0672 62.5945 61.0499 62.5945H74.8878C75.3375 62.5944 75.7824 62.6866 76.1951 62.8653C76.6078 63.044 76.9794 63.3054 77.287 63.6335C77.5946 63.9615 77.8317 64.3492 77.9835 64.7724C78.1354 65.1957 78.1988 65.6457 78.1698 66.0944Z" fill="white"/>
</g>
<path d="M40.1532 41.3584H34.9095C34.6515 41.3584 34.4424 41.5675 34.4424 41.8255V41.9874C34.4424 42.2454 34.6515 42.4545 34.9095 42.4545H40.1532C40.4112 42.4545 40.6203 42.2454 40.6203 41.9874V41.8255C40.6203 41.5675 40.4112 41.3584 40.1532 41.3584Z" fill="white"/>
<path d="M44.5405 41.3584H41.8532C41.5953 41.3584 41.3862 41.5675 41.3862 41.8255V41.9874C41.3862 42.2454 41.5953 42.4545 41.8532 42.4545H44.5405C44.7984 42.4545 45.0076 42.2454 45.0076 41.9874V41.8255C45.0076 41.5675 44.7984 41.3584 44.5405 41.3584Z" fill="white"/>
<path d="M32.6483 40.9717L30.7738 42.8431L29.9206 41.993" stroke="#00FFD8" stroke-width="0.77846" stroke-linecap="round" stroke-linejoin="round"/>
<path d="M40.1532 46.1096H34.9095C34.6515 46.1096 34.4424 46.3187 34.4424 46.5767V46.7386C34.4424 46.9966 34.6515 47.2057 34.9095 47.2057H40.1532C40.4112 47.2057 40.6203 46.9966 40.6203 46.7386V46.5767C40.6203 46.3187 40.4112 46.1096 40.1532 46.1096Z" fill="white"/>
<path d="M44.5405 46.1096H41.8532C41.5953 46.1096 41.3862 46.3187 41.3862 46.5767V46.7386C41.3862 46.9966 41.5953 47.2057 41.8532 47.2057H44.5405C44.7984 47.2057 45.0076 46.9966 45.0076 46.7386V46.5767C45.0076 46.3187 44.7984 46.1096 44.5405 46.1096Z" fill="white"/>
<path d="M32.6483 45.7205L30.7738 47.595L29.9206 46.7449" stroke="#00FFD8" stroke-width="0.77846" stroke-linecap="round" stroke-linejoin="round"/>
<path d="M40.1532 50.8613H34.9095C34.6515 50.8613 34.4424 51.0704 34.4424 51.3284V51.4903C34.4424 51.7483 34.6515 51.9574 34.9095 51.9574H40.1532C40.4112 51.9574 40.6203 51.7483 40.6203 51.4903V51.3284C40.6203 51.0704 40.4112 50.8613 40.1532 50.8613Z" fill="white"/>
<path d="M44.5405 50.8613H41.8532C41.5953 50.8613 41.3862 51.0704 41.3862 51.3284V51.4903C41.3862 51.7483 41.5953 51.9574 41.8532 51.9574H44.5405C44.7984 51.9574 45.0076 51.7483 45.0076 51.4903V51.3284C45.0076 51.0704 44.7984 50.8613 44.5405 50.8613Z" fill="white"/>
<path d="M32.6483 50.4722L30.7738 52.3467L29.9206 51.4935" stroke="#00FFD8" stroke-width="0.77846" stroke-linecap="round" stroke-linejoin="round"/>
</g>
</g>
<rect x="1.32857" y="1.32857" width="90.3429" height="90.3429" rx="45.1714" stroke="white" stroke-width="2.65714"/>
<defs>
<filter id="filter0_d_6_386" x="46.3526" y="22.9866" width="35.2493" height="50.2423" filterUnits="userSpaceOnUse" color-interpolation-filters="sRGB">
<feFlood flood-opacity="0" result="BackgroundImageFix"/>
<feColorMatrix in="SourceAlpha" type="matrix" values="0 0 0 0 0 0 0 0 0 0 0 0 0 0 0 0 0 0 127 0" result="hardAlpha"/>
<feOffset dx="-0.311384" dy="0.311384"/>
<feGaussianBlur stdDeviation="1.8683"/>
<feColorMatrix type="matrix" values="0 0 0 0 0.027451 0 0 0 0 0.027451 0 0 0 0 0.027451 0 0 0 1 0"/>
<feBlend mode="normal" in2="BackgroundImageFix" result="effect1_dropShadow_6_386"/>
<feBlend mode="normal" in="SourceGraphic" in2="effect1_dropShadow_6_386" result="shape"/>
</filter>
<linearGradient id="paint0_linear_6_386" x1="88.5765" y1="5.70666" x2="10.0891" y2="85.3655" gradientUnits="userSpaceOnUse">
<stop stop-color="#834AFF"/>
<stop offset="1" stop-color="#603CFF"/>
</linearGradient>
<clipPath id="clip0_6_386">
<rect width="93" height="93" rx="46.5" fill="white"/>
</clipPath>
<clipPath id="clip1_6_386">
<rect width="89.0143" height="90.3429" fill="white" transform="translate(2.6572 2.65723)"/>
</clipPath>
</defs>
</svg>
