<svg width="101" height="101" viewBox="0 0 101 101" fill="none" xmlns="http://www.w3.org/2000/svg">
<path d="M71.5417 8.41675H29.4583C17.8373 8.41675 8.41667 17.8374 8.41667 29.4584V71.5418C8.41667 83.1627 17.8373 92.5834 29.4583 92.5834H71.5417C83.1627 92.5834 92.5833 83.1627 92.5833 71.5418V29.4584C92.5833 17.8374 83.1627 8.41675 71.5417 8.41675Z" fill="url(#paint0_linear_6_324)"/>
<g opacity="0.9">
<path d="M37.875 62.0729C37.4605 62.0731 37.0499 61.9916 36.6669 61.8331C36.2838 61.6746 35.9357 61.4422 35.6425 61.1491L27.2258 52.7325C26.9325 52.4394 26.6999 52.0913 26.5411 51.7083C26.3824 51.3252 26.3007 50.9146 26.3007 50.5C26.3007 50.0853 26.3824 49.6747 26.5411 49.2916C26.6999 48.9086 26.9325 48.5605 27.2258 48.2674L35.6425 39.8508C36.2346 39.2587 37.0376 38.926 37.875 38.926C38.7124 38.926 39.5154 39.2587 40.1075 39.8508C40.6996 40.4429 41.0323 41.2459 41.0323 42.0833C41.0323 42.9206 40.6996 43.7237 40.1075 44.3158L33.9213 50.5L40.1075 56.6841C40.5492 57.1255 40.8501 57.688 40.972 58.3005C41.0939 58.9129 41.0314 59.5478 40.7924 60.1247C40.5533 60.7016 40.1486 61.1946 39.6293 61.5414C39.11 61.8882 38.4995 62.0732 37.875 62.0729Z" fill="white"/>
</g>
<g opacity="0.9">
<path d="M63.125 62.0729C62.5005 62.0732 61.89 61.8882 61.3707 61.5414C60.8514 61.1946 60.4467 60.7016 60.2077 60.1247C59.9686 59.5478 59.9061 58.9129 60.028 58.3005C60.1499 57.688 60.4508 57.1255 60.8925 56.6841L67.0787 50.5L60.8925 44.3158C60.5993 44.0226 60.3667 43.6746 60.2081 43.2915C60.0494 42.9085 59.9677 42.4979 59.9677 42.0833C59.9677 41.6687 60.0494 41.2581 60.2081 40.8751C60.3667 40.492 60.5993 40.1439 60.8925 39.8508C61.4846 39.2587 62.2876 38.926 63.125 38.926C63.5396 38.926 63.9502 39.0077 64.3332 39.1664C64.7163 39.325 65.0643 39.5576 65.3575 39.8508L73.7742 48.2674C74.0675 48.5605 74.3002 48.9086 74.4589 49.2916C74.6176 49.6747 74.6993 50.0853 74.6993 50.5C74.6993 50.9146 74.6176 51.3252 74.4589 51.7083C74.3002 52.0913 74.0675 52.4394 73.7742 52.7325L65.3575 61.1491C65.0643 61.4422 64.7162 61.6746 64.3331 61.8331C63.9501 61.9916 63.5396 62.0731 63.125 62.0729Z" fill="white"/>
</g>
<g opacity="0.5">
<path d="M46.2917 68.3855C45.9978 68.3851 45.7053 68.344 45.4226 68.2634C44.618 68.0334 43.9377 67.4931 43.5313 66.7616C43.1249 66.03 43.0256 65.167 43.2554 64.3623L51.672 34.904C51.7793 34.4981 51.9664 34.1178 52.2225 33.7851C52.4786 33.4525 52.7984 33.1743 53.1633 32.9668C53.5282 32.7593 53.9308 32.6267 54.3476 32.5767C54.7644 32.5267 55.187 32.5603 55.5906 32.6756C55.9942 32.791 56.3708 32.9856 56.6982 33.2483C57.0257 33.5109 57.2975 33.8362 57.4977 34.2052C57.6979 34.5741 57.8225 34.9793 57.8641 35.397C57.9058 35.8147 57.8638 36.2365 57.7404 36.6378L49.3238 66.0961C49.1355 66.7552 48.7378 67.3351 48.1908 67.7481C47.6437 68.1611 46.9771 68.3849 46.2917 68.3855Z" fill="white"/>
</g>
<defs>
<linearGradient id="paint0_linear_6_324" x1="18.1148" y1="18.1149" x2="85.4692" y2="85.4692" gradientUnits="userSpaceOnUse">
<stop stop-color="#9B8DFF"/>
<stop offset="0.252" stop-color="#7D79FD"/>
<stop offset="0.555" stop-color="#5F65FB"/>
<stop offset="0.815" stop-color="#4D58F9"/>
<stop offset="1" stop-color="#4654F9"/>
</linearGradient>
</defs>
</svg>
