<svg width="82" height="82" viewBox="0 0 82 82" fill="none" xmlns="http://www.w3.org/2000/svg">
<path d="M71.7828 62.8624C76.6706 58.5062 79.4383 52.6997 79.4383 46.6742C79.4383 40.2705 76.4405 34.2816 70.9969 29.8097C65.699 25.4589 58.6864 23.0625 51.25 23.0625C43.8136 23.0625 36.801 25.4589 31.5039 29.81C26.0603 34.2816 23.0625 40.2705 23.0625 46.6742C23.0625 53.0779 26.0603 59.0667 31.5039 63.5386C36.801 67.8898 43.8136 70.286 51.25 70.286C52.2409 70.286 53.2379 70.2423 54.2265 70.1553L55.9155 71.6193C61.7342 76.6615 69.1756 79.4372 76.875 79.4375H79.4375V73.9831L78.687 73.2327C75.7264 70.2634 73.3802 66.7394 71.7828 62.8624ZM59.2721 67.7461L55.883 64.8087L54.7529 64.9472C53.5907 65.0893 52.4209 65.1606 51.25 65.1607C38.5336 65.1607 28.1875 56.8676 28.1875 46.6742C28.1875 36.4807 38.5336 28.1875 51.25 28.1875C63.9664 28.1875 74.3125 36.4805 74.3125 46.6742C74.3125 51.7527 71.7788 56.494 67.1782 60.0245L65.7023 61.1569L66.3833 63.0844C67.7789 67.021 69.8301 70.6932 72.4504 73.9457C67.5708 73.1312 63.0106 70.9859 59.2721 67.7461Z" fill="#02C5BD"/>
<path d="M9.639 50.8458C12.0377 47.8094 13.921 44.3995 15.2137 40.7522L15.8896 38.8344L14.415 37.7027C10.0767 34.3737 7.6875 29.9057 7.6875 25.1216C7.6875 15.5084 17.4585 7.6875 29.4688 7.6875C38.3042 7.6875 45.9275 11.9204 49.3405 17.9855C49.9742 17.9548 50.6107 17.9375 51.25 17.9375C52.5341 17.9375 53.8065 17.9998 55.0672 18.1244C53.7483 14.7075 51.4577 11.5883 48.3086 9.00174C43.2537 4.84937 36.5637 2.5625 29.4688 2.5625C22.3738 2.5625 15.6838 4.84937 10.6286 9.00174C5.42705 13.2746 2.5625 18.9993 2.5625 25.1216C2.5625 30.8552 5.18137 36.3798 9.80957 40.5355C8.2992 44.1703 6.09227 47.4744 3.31315 50.2617L2.5625 51.0122V56.375H5.125C9.86356 56.3744 14.5369 55.2709 18.7753 53.1519C18.3105 51.3904 18.0382 49.5836 17.9631 47.7634C15.3907 49.2711 12.573 50.3144 9.639 50.8458Z" fill="#02C5BD"/>
</svg>
