<svg width="101" height="43" viewBox="0 0 101 43" fill="none" xmlns="http://www.w3.org/2000/svg">
<path d="M6.54429 42.8974C5.84467 43.2538 5.0508 42.6292 5.19217 41.8318L6.69654 33.3181L0.311121 27.2775C-0.28519 26.7123 0.0247468 25.6792 0.824057 25.5676L9.70166 24.3148L13.6601 16.5265C14.0172 15.8245 14.9833 15.8245 15.3403 16.5265L19.2988 24.3148L28.1764 25.5676C28.9757 25.6792 29.2857 26.7123 28.6875 27.2775L22.3039 33.3181L23.8083 41.8318C23.9497 42.6292 23.1558 43.2538 22.4562 42.8974L14.4975 38.8367L6.54429 42.8974Z" fill="#FF891C"/>
<path d="M78.5443 42.8974C77.8447 43.2538 77.0508 42.6292 77.1922 41.8318L78.6965 33.3181L72.3111 27.2775C71.7148 26.7123 72.0247 25.6792 72.8241 25.5676L81.7017 24.3148L85.6601 16.5265C86.0172 15.8245 86.9833 15.8245 87.3403 16.5265L91.2988 24.3148L100.176 25.5676C100.976 25.6792 101.286 26.7123 100.688 27.2775L94.3039 33.3181L95.8083 41.8318C95.9497 42.6292 95.1558 43.2538 94.4562 42.8974L86.4975 38.8367L78.5443 42.8974Z" fill="#FF891C"/>
<path d="M39.6063 42.8366C38.4724 43.4042 37.1858 42.4095 37.4149 41.1396L39.853 27.5807L29.5042 17.9605C28.5378 17.0604 29.0401 15.415 30.3355 15.2373L44.7234 13.2421L51.1389 0.838472C51.7175 -0.279491 53.2832 -0.279491 53.8619 0.838472L60.2774 13.2421L74.6652 15.2373C75.9607 15.415 76.463 17.0604 75.4936 17.9605L65.1478 27.5807L67.5859 41.1396C67.815 42.4095 66.5284 43.4042 65.3945 42.8366L52.496 36.3696L39.6063 42.8366Z" fill="#FF891C"/>
</svg>
