<svg width="78" height="78" viewBox="0 0 78 78" fill="none" xmlns="http://www.w3.org/2000/svg">
<path d="M74.1 39H72.8V11.7C72.7958 8.11195 69.888 5.20418 66.3 5.19995H11.7C8.112 5.20418 5.20422 8.11195 5.2 11.7V31.2H3.9C1.74606 31.2 0 32.946 0 35.1V68.8999C0 71.0539 1.74606 72.7999 3.9 72.7999H53.3C54.0179 72.7999 54.6 72.2179 54.6 71.4999C54.5958 67.9119 51.688 65.0042 48.1 65H44.2V57.2H59.8V68.8999C59.8 71.0539 61.5461 72.7999 63.7 72.7999H74.1C76.2539 72.7999 78 71.0539 78 68.8999V42.8999C78 40.746 76.2539 39 74.1 39ZM28.6 68.8999C28.6 69.6179 28.0179 70.2 27.3 70.2H3.9C3.18207 70.2 2.6 69.6179 2.6 68.8999V67.5999H28.6V68.8999ZM28.6 65H2.6V35.1C2.6 34.382 3.18207 33.7999 3.9 33.7999H27.3C28.0179 33.7999 28.6 34.382 28.6 35.1V65ZM48.1 67.5999C49.7523 67.6019 51.2247 68.6429 51.7777 70.2H30.9608C31.1148 69.7836 31.1956 69.3439 31.2 68.8999V67.5999H48.1ZM31.2 65V57.2H33.8V65H31.2ZM36.4 65V57.2H41.6V65H36.4ZM59.8 54.5999H31.2V46.7999H59.8V54.5999ZM59.8 42.8999V44.2H31.2V35.1C31.1956 34.4831 31.043 33.8763 30.7554 33.3307C30.7749 33.3125 30.8009 33.3073 30.8191 33.2878L43.6891 20.4178C44.188 19.9013 44.1737 19.0783 43.6572 18.5796C43.1535 18.093 42.3548 18.093 41.8509 18.5796L28.9809 31.4495C28.9497 31.482 28.9367 31.5236 28.9094 31.5574C28.405 31.3235 27.8559 31.2016 27.3 31.2H7.8V11.7C7.8 9.54601 9.54606 7.79995 11.7 7.79995H66.3C68.4539 7.79995 70.2 9.54601 70.2 11.7V39H63.7C61.5461 39 59.8 40.746 59.8 42.8999ZM75.4 68.8999C75.4 69.6179 74.8179 70.2 74.1 70.2H63.7C62.9821 70.2 62.4 69.6179 62.4 68.8999V67.5999H75.4V68.8999ZM75.4 65H62.4V42.8999C62.4 42.182 62.9821 41.5999 63.7 41.5999H74.1C74.8179 41.5999 75.4 42.182 75.4 42.8999V65Z" fill="#07CA5A"/>
<path d="M15.5337 47.0237C15.026 46.5162 14.2031 46.5162 13.6955 47.0237L8.18089 52.5383C7.66446 53.0372 7.65016 53.8601 8.14904 54.3765C8.64791 54.8929 9.47081 54.9072 9.98724 54.4083C9.99812 54.3979 10.0087 54.3872 10.0191 54.3765L15.5337 48.8619C15.7657 48.4597 15.2994 47.6951 15.5337 47.0237Z" fill="#07CA5A"/>
<path d="M23.3019 47.0236C22.7981 46.5371 21.9994 46.5371 21.4955 47.0236L15.9809 52.5382C15.4645 53.0369 15.4502 53.86 15.9491 54.3764C16.4478 54.8928 17.2708 54.9071 17.7873 54.4082C17.7981 54.3978 17.8087 54.3871 17.8191 54.3764L23.3337 48.8618C23.8324 48.3454 23.8183 47.5223 23.3019 47.0236Z" fill="#07CA5A"/>
<path d="M51.5872 18.581C51.0835 18.0944 50.2848 18.0944 49.7809 18.581L36.9109 31.451C36.3945 31.9497 36.3802 32.7727 36.8789 33.2892C37.3776 33.8056 38.2007 33.8199 38.7171 33.3212C38.728 33.3108 38.7385 33.3 38.7491 33.2892L51.6191 20.4192C52.118 19.9027 52.1037 19.0797 51.5872 18.581Z" fill="#07CA5A"/>
<path d="M71.6255 50.5428C71.1217 50.0561 70.3229 50.0561 69.8191 50.5428L66.1427 54.2191C65.6263 54.718 65.612 55.5409 66.1109 56.0573C66.6097 56.5738 67.4326 56.5881 67.9491 56.0892C67.9598 56.0788 67.9705 56.0681 67.9809 56.0573L71.6573 52.3809C72.1562 51.8645 72.1419 51.0416 71.6255 50.5428Z" fill="#07CA5A"/>
<path d="M39.026 49.3999H39.013C38.2951 49.4035 37.7159 49.9885 37.7195 50.7064C37.7231 51.4243 38.3081 52.0035 39.026 51.9999C39.7439 51.9999 40.326 51.4178 40.326 50.6999C40.326 49.982 39.7439 49.3999 39.026 49.3999Z" fill="#07CA5A"/>
<path d="M41.6 10.3999H36.4C35.6821 10.3999 35.1 10.982 35.1 11.6999C35.1 12.4178 35.6821 12.9999 36.4 12.9999H41.6C42.3179 12.9999 42.9 12.4178 42.9 11.6999C42.9 10.982 42.3179 10.3999 41.6 10.3999Z" fill="#07CA5A"/>
</svg>
