<svg width="112" height="96" viewBox="0 0 112 96" fill="none" xmlns="http://www.w3.org/2000/svg">
<rect opacity="0.4" y="28" width="32" height="40" rx="3" fill="#02C5BD"/>
<rect opacity="0.4" x="40" y="28" width="32" height="40" rx="3" fill="#515167"/>
<rect opacity="0.4" x="80" y="28" width="32" height="40" rx="3" fill="#FF3D41"/>
<g filter="url(#filter0_d_201_233)">
<rect x="21" y="56" width="56" height="70" rx="6" transform="rotate(-90 21 56)" fill="#FF3D41"/>
<rect x="22.5" y="54.5" width="53" height="67" rx="4.5" transform="rotate(-90 22.5 54.5)" stroke="white" stroke-width="3"/>
</g>
<path d="M39.9113 26.178H42.6833V34.956C42.566 35 42.39 35.0367 42.1553 35.066C41.9206 35.11 41.6713 35.132 41.4073 35.132C40.8793 35.132 40.498 35.0367 40.2633 34.846C40.0286 34.6407 39.9113 34.3033 39.9113 33.834V26.178ZM42.6833 29.39H39.9113V21.646C40.0286 21.6167 40.212 21.58 40.4613 21.536C40.7106 21.492 40.96 21.47 41.2093 21.47C41.7226 21.47 42.0966 21.5653 42.3313 21.756C42.566 21.932 42.6833 22.2693 42.6833 22.768V29.39ZM54.9198 27.806V30.314H52.2138V28.114C52.2138 27.542 52.0378 27.124 51.6858 26.86C51.3484 26.5813 50.9158 26.442 50.3878 26.442C50.0064 26.442 49.6544 26.5007 49.3318 26.618C49.0238 26.7207 48.7598 26.8453 48.5398 26.992V30.314H45.8338V26.816C45.8338 26.464 45.9071 26.178 46.0538 25.958C46.2004 25.7233 46.4204 25.5107 46.7138 25.32C47.1684 25.012 47.7258 24.7627 48.3858 24.572C49.0604 24.3813 49.7571 24.286 50.4758 24.286C51.1944 24.286 51.8544 24.396 52.4558 24.616C53.0571 24.836 53.5484 25.1587 53.9298 25.584C54.0324 25.672 54.1278 25.76 54.2158 25.848C54.3038 25.936 54.3771 26.0387 54.4358 26.156C54.5678 26.376 54.6778 26.6327 54.7658 26.926C54.8684 27.2047 54.9198 27.498 54.9198 27.806ZM61.2778 28.026V30.314H58.5718V28.114C58.5718 27.542 58.4104 27.124 58.0878 26.86C57.7651 26.5813 57.3324 26.442 56.7898 26.442C56.3938 26.442 56.0051 26.5227 55.6238 26.684C55.2571 26.8453 54.9418 27.058 54.6778 27.322L53.3138 25.672C53.7684 25.2907 54.3038 24.968 54.9198 24.704C55.5358 24.4253 56.2691 24.286 57.1198 24.286C57.8971 24.286 58.6011 24.4107 59.2318 24.66C59.8624 24.9093 60.3611 25.3127 60.7278 25.87C61.0944 26.4273 61.2778 27.146 61.2778 28.026ZM45.8338 29.258H48.5398V34.956C48.4224 35 48.2538 35.0367 48.0338 35.066C47.8138 35.11 47.5718 35.132 47.3078 35.132C46.8091 35.132 46.4351 35.044 46.1858 34.868C45.9511 34.6773 45.8338 34.3473 45.8338 33.878V29.258ZM52.2138 29.258H54.9198V34.956C54.8024 35 54.6264 35.0367 54.3918 35.066C54.1718 35.11 53.9371 35.132 53.6878 35.132C53.1744 35.132 52.8004 35.044 52.5658 34.868C52.3311 34.6773 52.2138 34.3473 52.2138 33.878V29.258ZM58.5718 29.258H61.2778V34.956C61.1751 35 61.0064 35.0367 60.7718 35.066C60.5518 35.11 60.3171 35.132 60.0678 35.132C59.5544 35.132 59.1731 35.044 58.9238 34.868C58.6891 34.6773 58.5718 34.3473 58.5718 33.878V29.258ZM68.429 34.626C67.5637 34.626 66.7643 34.4647 66.031 34.142C65.2977 33.8047 64.711 33.2547 64.271 32.492C63.831 31.7293 63.611 30.7247 63.611 29.478C63.611 28.334 63.831 27.3807 64.271 26.618C64.7257 25.8407 65.3563 25.2613 66.163 24.88C66.9843 24.484 67.923 24.286 68.979 24.286C69.727 24.286 70.4163 24.3813 71.047 24.572C71.6923 24.7627 72.2057 24.9827 72.587 25.232C72.8363 25.3933 73.0343 25.5913 73.181 25.826C73.3423 26.046 73.423 26.3173 73.423 26.64V33.504H70.783V26.882C70.5923 26.7647 70.3577 26.662 70.079 26.574C69.8003 26.486 69.4557 26.442 69.045 26.442C68.2383 26.442 67.5783 26.6913 67.065 27.19C66.5663 27.6887 66.317 28.4513 66.317 29.478C66.317 30.6073 66.559 31.3993 67.043 31.854C67.5417 32.3087 68.1503 32.536 68.869 32.536C69.4263 32.536 69.8737 32.4407 70.211 32.25C70.563 32.0593 70.8563 31.854 71.091 31.634L71.179 33.834C70.915 34.0393 70.5483 34.2227 70.079 34.384C69.6243 34.5453 69.0743 34.626 68.429 34.626ZM70.827 35.066V32.91H73.423V35.154C73.423 36.1513 73.1957 36.958 72.741 37.574C72.2863 38.2047 71.663 38.6667 70.871 38.96C70.0937 39.2533 69.221 39.4 68.253 39.4C67.4903 39.4 66.823 39.3267 66.251 39.18C65.6937 39.0333 65.283 38.8793 65.019 38.718C64.535 38.4247 64.293 38.0213 64.293 37.508C64.293 37.244 64.3517 37.0093 64.469 36.804C64.5863 36.5987 64.7257 36.4447 64.887 36.342C65.2537 36.5767 65.7083 36.782 66.251 36.958C66.8083 37.134 67.395 37.222 68.011 37.222C68.891 37.222 69.5803 37.046 70.079 36.694C70.5777 36.3567 70.827 35.814 70.827 35.066Z" fill="white"/>
<defs>
<filter id="filter0_d_201_233" x="1" y="0" width="110" height="96" filterUnits="userSpaceOnUse" color-interpolation-filters="sRGB">
<feFlood flood-opacity="0" result="BackgroundImageFix"/>
<feColorMatrix in="SourceAlpha" type="matrix" values="0 0 0 0 0 0 0 0 0 0 0 0 0 0 0 0 0 0 127 0" result="hardAlpha"/>
<feOffset dy="20"/>
<feGaussianBlur stdDeviation="10"/>
<feComposite in2="hardAlpha" operator="out"/>
<feColorMatrix type="matrix" values="0 0 0 0 0 0 0 0 0 0 0 0 0 0 0 0 0 0 0.25 0"/>
<feBlend mode="normal" in2="BackgroundImageFix" result="effect1_dropShadow_201_233"/>
<feBlend mode="normal" in="SourceGraphic" in2="effect1_dropShadow_201_233" result="shape"/>
</filter>
</defs>
</svg>
