<svg width="70" height="70" viewBox="0 0 70 70" fill="none" xmlns="http://www.w3.org/2000/svg">
<rect width="70" height="70" rx="35" fill="#4A8CFF"/>
<path d="M20.106 52.763C20.238 52.991 20.385 53.27 20.547 53.6C20.709 53.93 20.874 54.278 21.042 54.644C21.21 55.004 21.375 55.373 21.537 55.751C21.705 56.123 21.858 56.468 21.996 56.786C22.134 56.468 22.284 56.123 22.446 55.751C22.608 55.373 22.773 55.004 22.941 54.644C23.109 54.278 23.274 53.93 23.436 53.6C23.598 53.27 23.745 52.991 23.877 52.763H24.903C24.957 53.219 25.008 53.705 25.056 54.221C25.104 54.731 25.146 55.256 25.182 55.796C25.224 56.33 25.26 56.87 25.29 57.416C25.326 57.956 25.356 58.484 25.38 59H24.264C24.24 58.274 24.21 57.527 24.174 56.759C24.144 55.991 24.096 55.247 24.03 54.527C23.964 54.665 23.886 54.83 23.796 55.022C23.706 55.214 23.61 55.424 23.508 55.652C23.406 55.874 23.301 56.105 23.193 56.345C23.091 56.585 22.989 56.819 22.887 57.047C22.791 57.269 22.701 57.479 22.617 57.677C22.533 57.869 22.461 58.034 22.401 58.172H21.555C21.495 58.034 21.423 57.866 21.339 57.668C21.255 57.47 21.162 57.26 21.06 57.038C20.964 56.81 20.862 56.576 20.754 56.336C20.652 56.096 20.55 55.865 20.448 55.643C20.346 55.421 20.25 55.214 20.16 55.022C20.07 54.824 19.992 54.659 19.926 54.527C19.86 55.247 19.809 55.991 19.773 56.759C19.743 57.527 19.716 58.274 19.692 59H18.576C18.6 58.484 18.627 57.95 18.657 57.398C18.693 56.846 18.729 56.3 18.765 55.76C18.807 55.214 18.852 54.686 18.9 54.176C18.948 53.666 18.999 53.195 19.053 52.763H20.106ZM26.3861 56.669C26.3861 56.255 26.4461 55.892 26.5661 55.58C26.6921 55.268 26.8571 55.01 27.0611 54.806C27.2651 54.596 27.4991 54.44 27.7631 54.338C28.0271 54.23 28.2971 54.176 28.5731 54.176C29.2211 54.176 29.7251 54.377 30.0851 54.779C30.4511 55.181 30.6341 55.781 30.6341 56.579C30.6341 56.639 30.6311 56.708 30.6251 56.786C30.6251 56.858 30.6221 56.924 30.6161 56.984H27.5111C27.5411 57.362 27.6731 57.656 27.9071 57.866C28.1471 58.07 28.4921 58.172 28.9421 58.172C29.2061 58.172 29.4461 58.148 29.6621 58.1C29.8841 58.052 30.0581 58.001 30.1841 57.947L30.3281 58.838C30.2681 58.868 30.1841 58.901 30.0761 58.937C29.9741 58.967 29.8541 58.994 29.7161 59.018C29.5841 59.048 29.4401 59.072 29.2841 59.09C29.1281 59.108 28.9691 59.117 28.8071 59.117C28.3931 59.117 28.0331 59.057 27.7271 58.937C27.4211 58.811 27.1691 58.64 26.9711 58.424C26.7731 58.202 26.6261 57.944 26.5301 57.65C26.4341 57.35 26.3861 57.023 26.3861 56.669ZM29.5451 56.183C29.5451 56.033 29.5241 55.892 29.4821 55.76C29.4401 55.622 29.3771 55.505 29.2931 55.409C29.2151 55.307 29.1161 55.229 28.9961 55.175C28.8821 55.115 28.7441 55.085 28.5821 55.085C28.4141 55.085 28.2671 55.118 28.1411 55.184C28.0151 55.244 27.9071 55.325 27.8171 55.427C27.7331 55.529 27.6671 55.646 27.6191 55.778C27.5711 55.91 27.5381 56.045 27.5201 56.183H29.5451ZM31.5277 56.669C31.5277 56.255 31.5877 55.892 31.7077 55.58C31.8337 55.268 31.9987 55.01 32.2027 54.806C32.4067 54.596 32.6407 54.44 32.9047 54.338C33.1687 54.23 33.4387 54.176 33.7147 54.176C34.3627 54.176 34.8667 54.377 35.2267 54.779C35.5927 55.181 35.7757 55.781 35.7757 56.579C35.7757 56.639 35.7727 56.708 35.7667 56.786C35.7667 56.858 35.7637 56.924 35.7577 56.984H32.6527C32.6827 57.362 32.8147 57.656 33.0487 57.866C33.2887 58.07 33.6337 58.172 34.0837 58.172C34.3477 58.172 34.5877 58.148 34.8037 58.1C35.0257 58.052 35.1997 58.001 35.3257 57.947L35.4697 58.838C35.4097 58.868 35.3257 58.901 35.2177 58.937C35.1157 58.967 34.9957 58.994 34.8577 59.018C34.7257 59.048 34.5817 59.072 34.4257 59.09C34.2697 59.108 34.1107 59.117 33.9487 59.117C33.5347 59.117 33.1747 59.057 32.8687 58.937C32.5627 58.811 32.3107 58.64 32.1127 58.424C31.9147 58.202 31.7677 57.944 31.6717 57.65C31.5757 57.35 31.5277 57.023 31.5277 56.669ZM34.6867 56.183C34.6867 56.033 34.6657 55.892 34.6237 55.76C34.5817 55.622 34.5187 55.505 34.4347 55.409C34.3567 55.307 34.2577 55.229 34.1377 55.175C34.0237 55.115 33.8857 55.085 33.7237 55.085C33.5557 55.085 33.4087 55.118 33.2827 55.184C33.1567 55.244 33.0487 55.325 32.9587 55.427C32.8747 55.529 32.8087 55.646 32.7607 55.778C32.7127 55.91 32.6797 56.045 32.6617 56.183H34.6867ZM36.8763 53.051L37.9653 52.871V54.293H39.6393V55.202H37.9653V57.119C37.9653 57.497 38.0253 57.767 38.1453 57.929C38.2653 58.091 38.4693 58.172 38.7573 58.172C38.9553 58.172 39.1293 58.151 39.2793 58.109C39.4353 58.067 39.5583 58.028 39.6483 57.992L39.8283 58.856C39.7023 58.91 39.5373 58.964 39.3333 59.018C39.1293 59.078 38.8893 59.108 38.6133 59.108C38.2773 59.108 37.9953 59.063 37.7673 58.973C37.5453 58.883 37.3683 58.754 37.2363 58.586C37.1043 58.412 37.0113 58.205 36.9573 57.965C36.9033 57.719 36.8763 57.44 36.8763 57.128V53.051ZM41.79 59H40.701V54.293H41.79V59ZM41.907 52.916C41.907 53.12 41.841 53.282 41.709 53.402C41.577 53.522 41.421 53.582 41.241 53.582C41.055 53.582 40.896 53.522 40.764 53.402C40.632 53.282 40.566 53.12 40.566 52.916C40.566 52.706 40.632 52.541 40.764 52.421C40.896 52.301 41.055 52.241 41.241 52.241C41.421 52.241 41.577 52.301 41.709 52.421C41.841 52.541 41.907 52.706 41.907 52.916ZM43.1793 54.446C43.3893 54.386 43.6623 54.329 43.9983 54.275C44.3343 54.221 44.7063 54.194 45.1143 54.194C45.4983 54.194 45.8193 54.248 46.0773 54.356C46.3353 54.458 46.5393 54.605 46.6893 54.797C46.8453 54.983 46.9533 55.211 47.0133 55.481C47.0793 55.745 47.1123 56.036 47.1123 56.354V59H46.0233V56.525C46.0233 56.273 46.0053 56.06 45.9693 55.886C45.9393 55.706 45.8853 55.562 45.8073 55.454C45.7353 55.34 45.6333 55.259 45.5013 55.211C45.3753 55.157 45.2193 55.13 45.0333 55.13C44.8953 55.13 44.7513 55.139 44.6013 55.157C44.4513 55.175 44.3403 55.19 44.2683 55.202V59H43.1793V54.446ZM49.299 56.525C49.299 56.987 49.398 57.326 49.596 57.542C49.8 57.752 50.061 57.857 50.379 57.857C50.553 57.857 50.715 57.833 50.865 57.785C51.021 57.737 51.147 57.68 51.243 57.614V55.175C51.165 55.157 51.069 55.142 50.955 55.13C50.841 55.112 50.697 55.103 50.523 55.103C50.127 55.103 49.824 55.235 49.614 55.499C49.404 55.757 49.299 56.099 49.299 56.525ZM52.332 58.523C52.332 59.273 52.14 59.822 51.756 60.17C51.378 60.518 50.796 60.692 50.01 60.692C49.722 60.692 49.44 60.668 49.164 60.62C48.894 60.572 48.648 60.509 48.426 60.431L48.624 59.504C48.81 59.582 49.02 59.645 49.254 59.693C49.494 59.741 49.752 59.765 50.028 59.765C50.466 59.765 50.778 59.675 50.964 59.495C51.15 59.315 51.243 59.048 51.243 58.694V58.514C51.135 58.568 50.991 58.622 50.811 58.676C50.637 58.73 50.436 58.757 50.208 58.757C49.908 58.757 49.632 58.709 49.38 58.613C49.134 58.517 48.921 58.376 48.741 58.19C48.567 58.004 48.429 57.773 48.327 57.497C48.231 57.215 48.183 56.891 48.183 56.525C48.183 56.183 48.234 55.868 48.336 55.58C48.444 55.292 48.597 55.046 48.795 54.842C48.999 54.638 49.245 54.479 49.533 54.365C49.821 54.251 50.148 54.194 50.514 54.194C50.868 54.194 51.204 54.221 51.522 54.275C51.84 54.329 52.11 54.386 52.332 54.446V58.523Z" fill="white"/>
<path d="M25.828 42.98C25.572 43.244 25.268 43.588 24.916 44.012C24.564 44.428 24.2 44.884 23.824 45.38C23.448 45.876 23.076 46.388 22.708 46.916C22.34 47.444 22.012 47.948 21.724 48.428H25.96V50H19.42V48.884C19.644 48.476 19.916 48.024 20.236 47.528C20.564 47.024 20.904 46.52 21.256 46.016C21.608 45.504 21.964 45.012 22.324 44.54C22.692 44.06 23.032 43.632 23.344 43.256H19.612V41.684H25.828V42.98ZM32.951 46.832C32.951 47.328 32.879 47.784 32.735 48.2C32.591 48.608 32.383 48.96 32.111 49.256C31.839 49.544 31.511 49.768 31.127 49.928C30.751 50.088 30.327 50.168 29.855 50.168C29.391 50.168 28.967 50.088 28.583 49.928C28.207 49.768 27.883 49.544 27.611 49.256C27.339 48.96 27.127 48.608 26.975 48.2C26.823 47.784 26.747 47.328 26.747 46.832C26.747 46.336 26.823 45.884 26.975 45.476C27.135 45.068 27.351 44.72 27.623 44.432C27.903 44.144 28.231 43.92 28.607 43.76C28.991 43.6 29.407 43.52 29.855 43.52C30.311 43.52 30.727 43.6 31.103 43.76C31.487 43.92 31.815 44.144 32.087 44.432C32.359 44.72 32.571 45.068 32.723 45.476C32.875 45.884 32.951 46.336 32.951 46.832ZM31.127 46.832C31.127 46.28 31.015 45.848 30.791 45.536C30.575 45.216 30.263 45.056 29.855 45.056C29.447 45.056 29.131 45.216 28.907 45.536C28.683 45.848 28.571 46.28 28.571 46.832C28.571 47.384 28.683 47.824 28.907 48.152C29.131 48.472 29.447 48.632 29.855 48.632C30.263 48.632 30.575 48.472 30.791 48.152C31.015 47.824 31.127 47.384 31.127 46.832ZM40.2401 46.832C40.2401 47.328 40.1681 47.784 40.0241 48.2C39.8801 48.608 39.6721 48.96 39.4001 49.256C39.1281 49.544 38.8001 49.768 38.4161 49.928C38.0401 50.088 37.6161 50.168 37.1441 50.168C36.6801 50.168 36.2561 50.088 35.8721 49.928C35.4961 49.768 35.1721 49.544 34.9001 49.256C34.6281 48.96 34.4161 48.608 34.2641 48.2C34.1121 47.784 34.0361 47.328 34.0361 46.832C34.0361 46.336 34.1121 45.884 34.2641 45.476C34.4241 45.068 34.6401 44.72 34.9121 44.432C35.1921 44.144 35.5201 43.92 35.8961 43.76C36.2801 43.6 36.6961 43.52 37.1441 43.52C37.6001 43.52 38.0161 43.6 38.3921 43.76C38.7761 43.92 39.1041 44.144 39.3761 44.432C39.6481 44.72 39.8601 45.068 40.0121 45.476C40.1641 45.884 40.2401 46.336 40.2401 46.832ZM38.4161 46.832C38.4161 46.28 38.3041 45.848 38.0801 45.536C37.8641 45.216 37.5521 45.056 37.1441 45.056C36.7361 45.056 36.4201 45.216 36.1961 45.536C35.9721 45.848 35.8601 46.28 35.8601 46.832C35.8601 47.384 35.9721 47.824 36.1961 48.152C36.4201 48.472 36.7361 48.632 37.1441 48.632C37.5521 48.632 37.8641 48.472 38.0801 48.152C38.3041 47.824 38.4161 47.384 38.4161 46.832ZM45.0932 46.652C45.0932 46.076 45.0172 45.668 44.8652 45.428C44.7212 45.188 44.4692 45.068 44.1092 45.068C43.9972 45.068 43.8812 45.076 43.7612 45.092C43.6412 45.1 43.5252 45.112 43.4132 45.128V50H41.6252V43.904C41.7772 43.864 41.9532 43.824 42.1532 43.784C42.3612 43.736 42.5772 43.696 42.8012 43.664C43.0332 43.624 43.2692 43.596 43.5092 43.58C43.7492 43.556 43.9852 43.544 44.2172 43.544C44.6732 43.544 45.0412 43.604 45.3212 43.724C45.6092 43.836 45.8452 43.972 46.0292 44.132C46.2852 43.948 46.5772 43.804 46.9052 43.7C47.2412 43.596 47.5492 43.544 47.8292 43.544C48.3332 43.544 48.7452 43.616 49.0652 43.76C49.3932 43.896 49.6532 44.092 49.8452 44.348C50.0372 44.604 50.1692 44.908 50.2412 45.26C50.3132 45.612 50.3492 46.004 50.3492 46.436V50H48.5612V46.652C48.5612 46.076 48.4852 45.668 48.3332 45.428C48.1892 45.188 47.9372 45.068 47.5772 45.068C47.4812 45.068 47.3452 45.092 47.1692 45.14C47.0012 45.188 46.8612 45.248 46.7492 45.32C46.8052 45.504 46.8412 45.7 46.8572 45.908C46.8732 46.108 46.8812 46.324 46.8812 46.556V50H45.0932V46.652Z" fill="white"/>
<path d="M21 19.8066V30.6033C21.012 33.0418 23.0321 35.0095 25.5134 35H41.5282C41.7447 35.0009 41.9528 34.9175 42.1067 34.768C42.2607 34.6185 42.3481 34.415 42.3497 34.2023V23.4056C42.3377 20.9671 40.3176 18.9992 37.8363 19.0089H21.8265C21.7191 19.0077 21.6126 19.0274 21.5129 19.0667C21.4133 19.106 21.3225 19.1642 21.2458 19.238C21.169 19.3117 21.1078 19.3997 21.0657 19.4967C21.0235 19.5937 21.0012 19.698 21 19.8035V19.8066ZM43.3688 24.0183L49.9805 19.2716C50.5547 18.8038 51 18.9223 51 19.7678V34.2412C51 35.2042 50.4556 35.0867 49.9805 34.7364L43.3688 30.0003V24.0183Z" fill="white"/>
</svg>
